<?xml version="1.0" encoding="UTF-8" standalone="no"?>
<!-- Created with Inkscape (http://www.inkscape.org/) -->

<svg
   xmlns:osb="http://www.openswatchbook.org/uri/2009/osb"
   xmlns:dc="http://purl.org/dc/elements/1.1/"
   xmlns:cc="http://creativecommons.org/ns#"
   xmlns:rdf="http://www.w3.org/1999/02/22-rdf-syntax-ns#"
   xmlns:svg="http://www.w3.org/2000/svg"
   xmlns="http://www.w3.org/2000/svg"
   xmlns:xlink="http://www.w3.org/1999/xlink"
   xmlns:sodipodi="http://sodipodi.sourceforge.net/DTD/sodipodi-0.dtd"
   xmlns:inkscape="http://www.inkscape.org/namespaces/inkscape"
   width="171.40562mm"
   height="41.489689mm"
   viewBox="0 0 171.40561 41.489689"
   version="1.1"
   id="svg8"
   inkscape:version="0.92.1 r15371"
   sodipodi:docname="logo.svg"
   inkscape:export-filename="C:\Users\KirKa\Documents\testing\Katya\Material\logoColor.png"
   inkscape:export-xdpi="96"
   inkscape:export-ydpi="96">
  <defs
     id="defs2">
    <linearGradient
       id="linearGradient2377"
       osb:paint="solid">
      <stop
         style="stop-color:#000000;stop-opacity:1;"
         offset="0"
         id="stop2375" />
    </linearGradient>
    <clipPath
       clipPathUnits="userSpaceOnUse"
       id="clipPath551">
      <use
         x="0"
         y="0"
         xlink:href="#g547"
         id="use553"
         width="100%"
         height="100%"
         transform="translate(-153.79415,97.103933)" />
    </clipPath>
    <filter
       style="color-interpolation-filters:sRGB"
       height="1.4"
       width="1.4"
       y="-0.2"
       x="-0.2"
       inkscape:label="Outline"
       id="filter4388">
      <feGaussianBlur
         in="SourceAlpha"
         stdDeviation="4"
         result="blur1"
         id="feGaussianBlur4364" />
      <feComposite
         in="SourceGraphic"
         in2="blur1"
         operator="out"
         result="composite1"
         id="feComposite4366" />
      <feColorMatrix
         values="1 0 0 0 0 0 1 0 0 0 0 0 1 0 0 0 0 0 100 -1 "
         result="colormatrix1"
         id="feColorMatrix4368" />
      <feGaussianBlur
         stdDeviation="0.5"
         result="blur2"
         id="feGaussianBlur4370" />
      <feComposite
         in="blur2"
         in2="blur2"
         operator="over"
         result="composite2"
         id="feComposite4372" />
      <feColorMatrix
         values="1 0 0 0 0 0 1 0 0 0 0 0 1 0 0 0 0 0 50 -5 "
         result="colormatrix2"
         id="feColorMatrix4374" />
      <feGaussianBlur
         stdDeviation="1"
         result="blur3"
         id="feGaussianBlur4376" />
      <feColorMatrix
         values="1 0 0 0 0 0 1 0 0 0 0 0 1 0 0 0 0 0 5 -1 "
         result="colormatrix3"
         id="feColorMatrix4378" />
      <feFlood
         flood-opacity="1"
         flood-color="rgb(0,0,0)"
         result="flood"
         id="feFlood4380" />
      <feComposite
         in="flood"
         in2="colormatrix3"
         operator="in"
         result="composite3"
         id="feComposite4382" />
      <feComposite
         in="SourceGraphic"
         in2="colormatrix3"
         operator="out"
         result="composite4"
         id="feComposite4384" />
      <feComposite
         in="composite4"
         in2="composite3"
         k2="1"
         k3="1"
         operator="arithmetic"
         result="composite5"
         id="feComposite4386"
         k1="0"
         k4="0" />
    </filter>
    <filter
       style="color-interpolation-filters:sRGB"
       height="1.4"
       width="1.4"
       y="-0.2"
       x="-0.2"
       inkscape:label="Outline"
       id="filter4416">
      <feGaussianBlur
         in="SourceAlpha"
         stdDeviation="4"
         result="blur1"
         id="feGaussianBlur4392" />
      <feComposite
         in="SourceGraphic"
         in2="blur1"
         operator="out"
         result="composite1"
         id="feComposite4394" />
      <feColorMatrix
         values="1 0 0 0 0 0 1 0 0 0 0 0 1 0 0 0 0 0 100 -1 "
         result="colormatrix1"
         id="feColorMatrix4396" />
      <feGaussianBlur
         stdDeviation="0.5"
         result="blur2"
         id="feGaussianBlur4398" />
      <feComposite
         in="blur2"
         in2="blur2"
         operator="over"
         result="composite2"
         id="feComposite4400" />
      <feColorMatrix
         values="1 0 0 0 0 0 1 0 0 0 0 0 1 0 0 0 0 0 50 -5 "
         result="colormatrix2"
         id="feColorMatrix4402" />
      <feGaussianBlur
         stdDeviation="1"
         result="blur3"
         id="feGaussianBlur4404" />
      <feColorMatrix
         values="1 0 0 0 0 0 1 0 0 0 0 0 1 0 0 0 0 0 5 -1 "
         result="colormatrix3"
         id="feColorMatrix4406" />
      <feFlood
         flood-opacity="1"
         flood-color="rgb(0,0,0)"
         result="flood"
         id="feFlood4408" />
      <feComposite
         in="flood"
         in2="colormatrix3"
         operator="in"
         result="composite3"
         id="feComposite4410" />
      <feComposite
         in="SourceGraphic"
         in2="colormatrix3"
         operator="out"
         result="composite4"
         id="feComposite4412" />
      <feComposite
         in="composite4"
         in2="composite3"
         k2="1"
         k3="1"
         operator="arithmetic"
         result="composite5"
         id="feComposite4414"
         k1="0"
         k4="0" />
    </filter>
    <filter
       style="color-interpolation-filters:sRGB"
       height="1.4"
       width="1.4"
       y="-0.2"
       x="-0.2"
       inkscape:label="Outline"
       id="filter4626">
      <feGaussianBlur
         in="SourceAlpha"
         stdDeviation="4"
         result="blur1"
         id="feGaussianBlur4602" />
      <feComposite
         in="SourceGraphic"
         in2="blur1"
         operator="out"
         result="composite1"
         id="feComposite4604" />
      <feColorMatrix
         values="1 0 0 0 0 0 1 0 0 0 0 0 1 0 0 0 0 0 100 -0 "
         result="colormatrix1"
         id="feColorMatrix4606" />
      <feGaussianBlur
         stdDeviation="0.21"
         result="blur2"
         id="feGaussianBlur4608" />
      <feComposite
         in="blur2"
         in2="blur2"
         operator="over"
         result="composite2"
         id="feComposite4610" />
      <feColorMatrix
         values="1 0 0 0 0 0 1 0 0 0 0 0 1 0 0 0 0 0 1 -0 "
         result="colormatrix2"
         id="feColorMatrix4612" />
      <feGaussianBlur
         stdDeviation="0.01"
         result="blur3"
         id="feGaussianBlur4614" />
      <feColorMatrix
         values="1 0 0 0 0 0 1 0 0 0 0 0 1 0 0 0 0 0 5 -1 "
         result="colormatrix3"
         id="feColorMatrix4616" />
      <feFlood
         flood-opacity="1"
         flood-color="rgb(0,0,0)"
         result="flood"
         id="feFlood4618" />
      <feComposite
         in="flood"
         in2="colormatrix3"
         operator="in"
         result="composite3"
         id="feComposite4620" />
      <feComposite
         in="SourceGraphic"
         in2="colormatrix3"
         operator="out"
         result="composite4"
         id="feComposite4622" />
      <feComposite
         in="composite4"
         in2="composite3"
         k2="1"
         k3="1"
         operator="arithmetic"
         result="composite5"
         id="feComposite4624"
         k1="0"
         k4="0" />
    </filter>
    <filter
       style="color-interpolation-filters:sRGB"
       height="1.4"
       width="1.4"
       y="-0.2"
       x="-0.2"
       inkscape:label="Outline"
       id="filter1480">
      <feGaussianBlur
         in="SourceAlpha"
         stdDeviation="4"
         result="blur1"
         id="feGaussianBlur1456" />
      <feComposite
         in="SourceGraphic"
         in2="blur1"
         operator="out"
         result="composite1"
         id="feComposite1458" />
      <feColorMatrix
         values="1 0 0 0 0 0 1 0 0 0 0 0 1 0 0 0 0 0 100 -0 "
         result="colormatrix1"
         id="feColorMatrix1460" />
      <feGaussianBlur
         stdDeviation="0.41"
         result="blur2"
         id="feGaussianBlur1462" />
      <feComposite
         in="blur2"
         in2="blur2"
         operator="over"
         result="composite2"
         id="feComposite1464" />
      <feColorMatrix
         values="1 0 0 0 0 0 1 0 0 0 0 0 1 0 0 0 0 0 1 -0 "
         result="colormatrix2"
         id="feColorMatrix1466" />
      <feGaussianBlur
         stdDeviation="0.01"
         result="blur3"
         id="feGaussianBlur1468" />
      <feColorMatrix
         values="1 0 0 0 0 0 1 0 0 0 0 0 1 0 0 0 0 0 5 -1 "
         result="colormatrix3"
         id="feColorMatrix1470" />
      <feFlood
         flood-opacity="0.941176"
         flood-color="rgb(194,234,214)"
         result="flood"
         id="feFlood1472" />
      <feComposite
         in="flood"
         in2="colormatrix3"
         operator="in"
         result="composite3"
         id="feComposite1474" />
      <feComposite
         in="SourceGraphic"
         in2="colormatrix3"
         operator="out"
         result="composite4"
         id="feComposite1476" />
      <feComposite
         in="composite4"
         in2="composite3"
         k2="1"
         k3="1"
         operator="arithmetic"
         result="fbSourceGraphic"
         id="feComposite1478"
         k1="0"
         k4="0" />
      <feColorMatrix
         result="fbSourceGraphicAlpha"
         in="fbSourceGraphic"
         values="0 0 0 -1 0 0 0 0 -1 0 0 0 0 -1 0 0 0 0 1 0"
         id="feColorMatrix1482" />
      <feGaussianBlur
         id="feGaussianBlur1484"
         in="fbSourceGraphicAlpha"
         stdDeviation="4"
         result="blur1" />
      <feComposite
         in2="blur1"
         id="feComposite1486"
         in="fbSourceGraphic"
         operator="out"
         result="composite1" />
      <feColorMatrix
         id="feColorMatrix1488"
         values="1 0 0 0 0 0 1 0 0 0 0 0 1 0 0 0 0 0 100 -0 "
         result="colormatrix1" />
      <feGaussianBlur
         id="feGaussianBlur1490"
         stdDeviation="0.61"
         result="blur2" />
      <feComposite
         in2="blur2"
         id="feComposite1492"
         in="blur2"
         operator="over"
         result="composite2" />
      <feColorMatrix
         id="feColorMatrix1494"
         values="1 0 0 0 0 0 1 0 0 0 0 0 1 0 0 0 0 0 1 -0 "
         result="colormatrix2" />
      <feGaussianBlur
         id="feGaussianBlur1496"
         stdDeviation="0.01"
         result="blur3" />
      <feColorMatrix
         id="feColorMatrix1498"
         values="1 0 0 0 0 0 1 0 0 0 0 0 1 0 0 0 0 0 5 -1 "
         result="colormatrix3" />
      <feFlood
         id="feFlood1500"
         flood-opacity="0.941176"
         flood-color="rgb(194,234,214)"
         result="flood" />
      <feComposite
         in2="colormatrix3"
         id="feComposite1502"
         in="flood"
         operator="in"
         result="composite3" />
      <feComposite
         in2="colormatrix3"
         id="feComposite1504"
         in="fbSourceGraphic"
         operator="out"
         result="composite4" />
      <feComposite
         in2="composite3"
         id="feComposite1506"
         in="composite4"
         k2="1"
         k3="1"
         operator="arithmetic"
         result="composite5"
         k1="0"
         k4="0" />
    </filter>
  </defs>
  <sodipodi:namedview
     id="base"
     pagecolor="#ffffff"
     bordercolor="#666666"
     borderopacity="1.0"
     inkscape:pageopacity="0.0"
     inkscape:pageshadow="2"
     inkscape:zoom="1.0005561"
     inkscape:cx="609.57384"
     inkscape:cy="-1.096243"
     inkscape:document-units="mm"
     inkscape:current-layer="g2922"
     showgrid="false"
     inkscape:window-width="1920"
     inkscape:window-height="1017"
     inkscape:window-x="-8"
     inkscape:window-y="-8"
     inkscape:window-maximized="1"
     inkscape:snap-grids="false"
     inkscape:snap-to-guides="false"
     inkscape:snap-others="false"
     inkscape:object-nodes="false"
     inkscape:snap-nodes="false"
     fit-margin-top="0"
     fit-margin-left="-10.6"
     fit-margin-right="-10"
     fit-margin-bottom="0"
     inkscape:pagecheckerboard="true" />
  <metadata
     id="metadata5">
    <rdf:RDF>
      <cc:Work
         rdf:about="">
        <dc:format>image/svg+xml</dc:format>
        <dc:type
           rdf:resource="http://purl.org/dc/dcmitype/StillImage" />
        <dc:title />
      </cc:Work>
    </rdf:RDF>
  </metadata>
  <g
     inkscape:label="Layer 1"
     inkscape:groupmode="layer"
     id="layer1"
     transform="translate(-52.291518,-52.097146)">
    <g
       id="g165" />
    <path
       style="fill:#000000;stroke-width:0.08466667"
       d=""
       id="path108"
       inkscape:connector-curvature="0" />
    <path
       style="fill:#000000;stroke-width:0.08466667"
       d=""
       id="path106"
       inkscape:connector-curvature="0" />
    <path
       style="fill:#000000;stroke-width:0.08466667"
       d=""
       id="path104"
       inkscape:connector-curvature="0" />
    <path
       style="fill:#000000;stroke-width:0.08466667"
       d=""
       id="path102"
       inkscape:connector-curvature="0" />
    <path
       style="fill:#000000;stroke-width:0.08466667"
       d=""
       id="path100"
       inkscape:connector-curvature="0" />
    <path
       style="fill:#000000;stroke-width:0.08466667"
       d=""
       id="path98"
       inkscape:connector-curvature="0" />
    <path
       style="fill:#000000;stroke-width:0.08466667"
       d=""
       id="path96"
       inkscape:connector-curvature="0" />
    <path
       style="fill:#000000;stroke-width:0.08466667"
       d=""
       id="path94"
       inkscape:connector-curvature="0" />
    <path
       style="fill:#000000;stroke-width:0.08466667"
       d=""
       id="path92"
       inkscape:connector-curvature="0" />
    <path
       style="fill:#eca8af;fill-opacity:0.94117647;stroke:none;stroke-width:0.125;stroke-opacity:1"
       d=""
       id="path2445"
       inkscape:connector-curvature="0"
       transform="matrix(0.26458333,0,0,0.26458333,80.569539,107.86873)" />
    <g
       id="g2922">
      <g
         style="stroke:none"
         transform="matrix(0.26426981,0,0,0.26458333,-86.24171,17.17137)"
         id="g4809">
        <g
           transform="matrix(0.89432815,0,0,1,59.550561,-11.844039)"
           style="stroke:none"
           id="g4729">
          <path
             sodipodi:nodetypes="csc"
             inkscape:connector-curvature="0"
             id="path5032"
             d="M 474.71417,296.17451 C 581.6867,280.44964 589.17313,264.40704 938.42,287.34606 c 148.8303,9.77538 189.3065,-49.66879 203.5454,-84.98168"
             style="fill:none;stroke:none" />
          <path
             transform="translate(579.99844,341.79318)"
             inkscape:connector-curvature="0"
             id="path95"
             d=""
             style="fill:#2ca02c;stroke:none" />
        </g>
        <g
           style="stroke:none"
           id="g4731" />
        <g
           style="stroke:none"
           id="g4733" />
        <g
           style="stroke:none"
           id="g4735" />
        <g
           style="stroke:none"
           id="g4737" />
        <g
           style="stroke:none"
           id="g4739" />
        <g
           style="stroke:none"
           id="g4741" />
        <g
           style="stroke:none"
           id="g4743" />
        <g
           style="stroke:none"
           id="g4745" />
        <g
           style="stroke:none"
           id="g4747" />
        <g
           style="stroke:none"
           id="g4749" />
        <g
           style="stroke:none"
           id="g4751" />
        <g
           style="stroke:none"
           id="g4753" />
        <g
           style="stroke:none"
           id="g4755" />
        <g
           style="stroke:none"
           id="g4757" />
        <g
           style="stroke:none"
           id="g4759" />
        <path
           transform="translate(579.99844,341.79318)"
           inkscape:connector-curvature="0"
           id="path2431"
           d=""
           style="fill:#faea95;fill-opacity:0.94117647;stroke:none" />
      </g>
      <g
         id="g184">
        <g
           id="g162">
          <g
             transform="matrix(10.757468,0,0,11.017706,-764.53985,-1015.5525)"
             inkscape:label="Clip"
             id="g547">
            <path
               inkscape:connector-curvature="0"
               id="path2417"
               d="m 91.189743,99.22995 c -0.283331,-0.05964 -0.362689,-0.335616 -0.512532,-0.537743 -0.01673,-0.02209 -0.02375,-0.02724 -0.03344,-0.02452 -0.0083,0.0023 -0.02992,0.03546 -0.06657,0.101985 -0.06081,0.110358 -0.09472,0.152462 -0.15331,0.19033 -0.09269,0.05991 -0.207479,0.09373 -0.385338,0.113565 -0.131347,0.01462 -0.154911,-0.0037 -0.216812,-0.169241 -0.0419,-0.112027 -0.05569,-0.184436 -0.05123,-0.269354 0.0045,-0.08587 0.01992,-0.139946 0.09383,-0.329041 l 0.06596,-0.16875 -0.09713,0.02042 c -0.103984,0.02185 -0.146399,0.02521 -0.223079,0.01768 -0.16082,-0.0158 -0.344954,-0.10217 -0.415035,-0.194688 -0.08794,-0.123576 -0.02583,-0.221115 0.06542,-0.280878 0.06786,-0.04382 0.116498,-0.06572 0.193932,-0.08736 0.117796,-0.03292 0.23066,-0.03573 0.369818,-0.0092 0.106504,0.02031 0.177074,0.0475 0.32434,0.124967 0.143447,0.07546 0.181545,0.091 0.221634,0.09038 0.04177,-6.41e-4 0.06268,-0.02469 0.06986,-0.08033 0.0066,-0.05111 0.04809,-0.09057 0.132171,-0.125727 0.07123,-0.02978 0.11241,-0.05832 0.127513,-0.08835 0.01183,-0.02353 0.0088,-0.09239 -0.007,-0.158695 -0.01778,-0.07465 -0.03688,-0.109853 -0.09189,-0.169568 -0.03001,-0.03257 -0.04986,-0.04735 -0.100316,-0.07469 -0.106747,-0.05784 -0.204913,-0.06629 -0.322554,-0.02776 -0.07233,0.02368 -0.121768,0.05584 -0.166135,0.108054 -0.0634,0.07461 -0.07267,0.151183 -0.02445,0.202071 0.03834,0.04046 0.09973,0.04269 0.127017,0.0046 0.01933,-0.02697 0.03652,-0.04421 0.04143,-0.04154 0.01232,0.0067 0.01145,0.03161 -0.0019,0.05356 -0.03141,0.05164 -0.104981,0.06846 -0.166439,0.03805 -0.05807,-0.02873 -0.08498,-0.09077 -0.06966,-0.160566 0.03699,-0.168419 0.272174,-0.296055 0.475889,-0.258268 0.121633,0.02256 0.231172,0.09376 0.294589,0.191474 0.04352,0.06705 0.0656,0.161015 0.06161,0.262075 -0.0025,0.06337 -3.99e-4,0.07279 0.02048,0.09159 0.02142,0.01927 0.05785,0.0239 0.10618,0.01348 l 0.04052,-0.0087 0.02741,-0.03805 c 0.06213,-0.08626 0.130675,-0.136122 0.221785,-0.161341 0.06987,-0.01934 0.116723,-0.0211 0.195296,-0.0073 0.101854,0.01785 0.200617,0.07727 0.270266,0.162597 0.130086,0.159364 0.135643,0.388838 0.01071,0.444428 -0.04901,0.02182 -0.114626,0.0072 -0.155008,-0.03439 -0.03862,-0.03978 -0.04522,-0.110809 -0.01178,-0.125643 0.01403,-0.0062 0.01645,-1.38e-4 0.01597,0.03999 -7.49e-4,0.0506 0.02606,0.07925 0.0786,0.0854 0.03068,0.0035 0.05055,-0.0026 0.07522,-0.02307 0.04511,-0.0375 0.06027,-0.11075 0.04103,-0.1986 -0.02794,-0.127407 -0.135134,-0.248314 -0.258026,-0.290891 -0.07969,-0.0276 -0.175327,-0.03252 -0.245618,-0.0126 -0.125014,0.03541 -0.244591,0.16456 -0.261645,0.282573 -0.0027,0.01853 -0.0029,0.06762 -4.58e-4,0.109078 0.0077,0.132062 -0.01199,0.1827 -0.08785,0.225737 -0.08533,0.04841 -0.07617,0.06512 0.121345,0.221385 0.191225,0.145968 0.349819,0.342855 0.414944,0.557636 0.06138,0.185547 0.04409,0.433111 -0.179564,0.403749 z m 0.107383,-0.05455 c 0.02395,-0.02092 0.0431,-0.06027 0.05215,-0.107231 0.03763,-0.195049 -0.151555,-0.54374 -0.403298,-0.743298 -0.07538,-0.05976 -0.166356,-0.115694 -0.181349,-0.111504 -0.01677,0.0047 -0.02531,0.03453 -0.02725,0.09539 0.0163,0.321229 0.07521,0.637057 0.338937,0.831251 0.07381,0.03176 0.155111,0.08265 0.220801,0.03539 z m -0.878158,-0.28252 c 0.03004,-0.02628 0.03209,-0.04037 0.0094,-0.06482 -0.02919,-0.03152 -0.08726,-0.06434 -0.198455,-0.112183 -0.178377,-0.07675 -0.270633,-0.133222 -0.305165,-0.186799 -0.05737,-0.08902 -0.135221,-0.03466 -0.117495,0.08204 0.01209,0.07955 0.09358,0.162114 0.229746,0.232735 0.162122,0.08408 0.318846,0.104202 0.381932,0.04903 z m 0.229198,-0.305714 c 0.0089,-0.01871 -0.0023,-0.05446 -0.02533,-0.08087 -0.02726,-0.0313 -0.108228,-0.07425 -0.196638,-0.104321 -0.133356,-0.04535 -0.197962,-0.09752 -0.31586,-0.1848 -0.08355,-0.07251 -0.138499,-0.04579 -0.129748,0.05006 0.01924,0.06564 0.147249,0.159476 0.348757,0.255663 0.125286,0.0598 0.210221,0.08858 0.264963,0.08976 0.03045,6.61e-4 0.04461,-0.0061 0.05384,-0.02548 z m 0.04494,-0.398593 c 0.01269,-0.02233 0.007,-0.04153 -0.0221,-0.07427 -0.05807,-0.06537 -0.247918,-0.14137 -0.333114,-0.133349 -0.158003,0.04175 0.06027,0.169011 0.120808,0.198469 0.103268,0.04746 0.210267,0.05164 0.234414,0.0091 z m -0.693372,-0.128047 c 0.132094,-0.0587 0.264886,-0.134477 0.285168,-0.16273 0.01415,-0.01972 0.0029,-0.03441 -0.05134,-0.06688 -0.09519,-0.05701 -0.332691,-0.142066 -0.480549,-0.172088 -0.147578,-0.02997 -0.298027,-0.0087 -0.4174,0.05913 -0.12492,0.07093 -0.161051,0.172122 -0.08747,0.244964 0.226193,0.157868 0.50868,0.2022 0.751591,0.0976 z"
               style="fill:#c2ead6;fill-opacity:1;stroke:none;stroke-width:0.00584514;stroke-opacity:1"
               sodipodi:nodetypes="cccccccccccccccccccccccccccccccccccccccccccccccccccccccccccccccccccccccccccccccccccccccccccccccc" />
          </g>
          <text
             transform="matrix(0.22431172,0,0,0.27877574,-70.504295,14.037635)"
             id="text5030"
             y="252.27817"
             x="541.97656"
             style="font-style:normal;font-variant:normal;font-weight:normal;font-stretch:normal;font-size:98.0118866px;line-height:1.25;font-family:'8514fix';-inkscape-font-specification:'8514fix';letter-spacing:0px;word-spacing:0px;fill:#eca8af;fill-opacity:1;stroke:none"
             xml:space="preserve"><tspan
               style="font-style:normal;font-variant:normal;font-weight:normal;font-stretch:normal;font-family:'Kaushan Script';-inkscape-font-specification:'Kaushan Script';fill:#eca8af;fill-opacity:1;stroke:none"
               y="252.27817"
               x="541.97656"
               id="tspan5028"
               sodipodi:role="line">BEE</tspan></text>
          <path
             transform="matrix(0.23634393,0,0,0.26458333,-70.504295,14.037635)"
             inkscape:connector-curvature="0"
             id="path99"
             d="m 597.4626,272.98299 c -1.78289,-1.29651 -3.74833,-3.49216 -5.30661,-5.92814 l -1.24154,-1.94084 1.76838,-4.49137 c 2.25645,-5.73101 4.81308,-12.6873 7.64865,-20.8111 l 2.24094,-6.42024 -1.12302,-0.46502 c -1.46508,-0.60665 -4.12824,-3.28071 -4.12824,-4.14513 0,-0.5112 0.58036,-0.88965 2.38649,-1.55627 1.31257,-0.48445 2.94333,-0.99855 3.62392,-1.14245 0.68059,-0.1439 1.42923,-0.41597 1.66365,-0.60459 0.85323,-0.68658 6.82163,-20.97041 6.82163,-23.18356 0,-0.18752 -0.54871,-0.42999 -1.21937,-0.53882 -4.21074,-0.68331 -6.38813,-3.91385 -5.50565,-8.16862 l 0.37381,-1.80229 8.51972,0.11187 c 8.48277,0.11138 13.57432,-0.19409 26.35515,-1.58119 6.26885,-0.68037 6.98054,-0.53014 8.59331,1.81395 0.95101,1.38225 2.48083,5.25021 2.48116,6.27334 1.2e-4,0.35608 -1.34152,0.42637 -6.26604,0.32825 -4.99084,-0.0994 -7.55045,0.0386 -12.57618,0.6781 l -6.30998,0.80293 -0.99233,1.97356 c -2.06951,4.11591 -9.03485,20.87543 -8.76192,21.08234 0.0447,0.0339 1.43364,-0.14603 3.0865,-0.39982 1.65286,-0.25379 4.67574,-0.56311 6.71751,-0.68738 3.44286,-0.20954 3.82667,-0.16607 5.28784,0.59895 2.02073,1.05801 3.19949,3.17798 3.19262,5.74187 -0.007,2.62547 -0.29426,3.45648 -1.10565,3.19895 -1.83348,-0.58192 -9.19409,-0.22188 -15.19737,0.74338 l -6.23158,1.00196 -1.32556,3.55466 c -5.17716,13.88308 -9.26159,28.48016 -7.96907,28.48016 0.23077,0 3.07284,-0.54453 6.31571,-1.21005 6.65039,-1.36486 13.70975,-2.43864 20.17932,-3.06942 4.16297,-0.40589 4.40833,-0.39372 4.8729,0.24162 0.90845,1.24238 1.88034,5.13376 1.88034,7.52877 v 2.35578 l -9.81111,0.031 c -10.25946,0.0324 -13.93256,0.32064 -22.26114,1.74697 -2.76397,0.47335 -5.08681,0.86064 -5.16186,0.86064 -0.0751,0 -0.75695,-0.45122 -1.51533,-1.00272 z"
             style="fill:#c2ead6;fill-opacity:0;stroke:none" />
          <path
             transform="matrix(0.23634393,0,0,0.26458333,-70.504295,14.037635)"
             inkscape:connector-curvature="0"
             id="path4576"
             d="m 598.25979,273.43404 c -1.58097,-0.83428 -4.16099,-3.5159 -5.72009,-5.94533 l -1.50704,-2.34832 2.74323,-7.15168 c 2.43844,-6.3571 7.70344,-20.9882 8.51104,-23.65168 0.2377,-0.78394 -0.0958,-1.21606 -1.54354,-2 -1.01571,-0.55 -2.26432,-1.71963 -2.77469,-2.59919 l -0.92794,-1.5992 4.1565,-1.29593 4.15651,-1.29593 2.37457,-7.60487 c 2.57728,-8.25406 4.37624,-15.38391 4.03195,-15.97988 -0.11915,-0.20625 -0.66453,-0.375 -1.21196,-0.375 -2.98425,0 -5.44566,-2.90826 -5.44566,-6.43427 0,-3.4472 -0.29245,-3.33426 8.12972,-3.13962 5.2021,0.12022 11.60525,-0.18263 20.17788,-0.95436 6.90669,-0.62175 12.90163,-0.99844 13.32211,-0.83709 1.27793,0.49039 3.23172,3.47133 4.00816,6.11534 l 0.73414,2.5 -6.03902,-0.1807 c -3.86319,-0.1156 -8.43088,0.13081 -12.67766,0.68392 l -6.63865,0.86462 -1.57279,3.31608 c -1.8927,3.9906 -7.94389,18.82302 -7.94389,19.47174 0,0.27073 0.87453,0.29529 2.125,0.0597 1.16875,-0.22021 4.16383,-0.55521 6.65574,-0.74445 3.70438,-0.2813 4.81996,-0.19449 6.11653,0.47599 2.06485,1.06778 3.10273,3.15436 3.10273,6.23783 v 2.48437 l -5.125,-0.0609 c -2.93433,-0.0349 -7.6524,0.34483 -11.03778,0.88834 -5.39758,0.86657 -5.97087,1.06162 -6.57953,2.23865 -2.58585,5.00047 -9.98769,29.95154 -9.13748,30.80175 0.17325,0.17325 2.52333,-0.15713 5.22239,-0.73418 7.00369,-1.49735 16.48662,-2.96613 21.68304,-3.35841 l 4.46571,-0.33711 0.84388,1.94641 c 0.46414,1.07053 0.94005,3.43994 1.05759,5.26535 l 0.21369,3.31894 -6.50575,-0.26386 c -7.17154,-0.29087 -17.59008,0.45323 -25.44364,1.81719 -3.43441,0.59646 -5.38828,0.72861 -6,0.4058 z"
             style="fill:#c2ead6;fill-opacity:0;stroke:none" />
          <path
             transform="matrix(0.23634393,0,0,0.26458333,-70.504295,14.037635)"
             inkscape:connector-curvature="0"
             id="path4578"
             d="m 598.25979,273.43404 c -1.58097,-0.83428 -4.16099,-3.5159 -5.72009,-5.94533 l -1.50704,-2.34832 2.74323,-7.15168 c 2.43844,-6.3571 7.70344,-20.9882 8.51104,-23.65168 0.2377,-0.78394 -0.0958,-1.21606 -1.54354,-2 -1.01571,-0.55 -2.26432,-1.71963 -2.77469,-2.59919 l -0.92794,-1.5992 4.1565,-1.29593 4.15651,-1.29593 2.37457,-7.60487 c 2.57728,-8.25406 4.37624,-15.38391 4.03195,-15.97988 -0.11915,-0.20625 -0.66453,-0.375 -1.21196,-0.375 -2.98425,0 -5.44566,-2.90826 -5.44566,-6.43427 0,-3.4472 -0.29245,-3.33426 8.12972,-3.13962 5.2021,0.12022 11.60525,-0.18263 20.17788,-0.95436 6.90669,-0.62175 12.90163,-0.99844 13.32211,-0.83709 1.27793,0.49039 3.23172,3.47133 4.00816,6.11534 l 0.73414,2.5 -6.03902,-0.1807 c -3.86319,-0.1156 -8.43088,0.13081 -12.67766,0.68392 l -6.63865,0.86462 -1.57279,3.31608 c -1.8927,3.9906 -7.94389,18.82302 -7.94389,19.47174 0,0.27073 0.87453,0.29529 2.125,0.0597 1.16875,-0.22021 4.16383,-0.55521 6.65574,-0.74445 3.70438,-0.2813 4.81996,-0.19449 6.11653,0.47599 2.06485,1.06778 3.10273,3.15436 3.10273,6.23783 v 2.48437 l -5.125,-0.0609 c -2.93433,-0.0349 -7.6524,0.34483 -11.03778,0.88834 -5.39758,0.86657 -5.97087,1.06162 -6.57953,2.23865 -2.58585,5.00047 -9.98769,29.95154 -9.13748,30.80175 0.17325,0.17325 2.52333,-0.15713 5.22239,-0.73418 7.00369,-1.49735 16.48662,-2.96613 21.68304,-3.35841 l 4.46571,-0.33711 0.84388,1.94641 c 0.46414,1.07053 0.94005,3.43994 1.05759,5.26535 l 0.21369,3.31894 -6.50575,-0.26386 c -7.17154,-0.29087 -17.59008,0.45323 -25.44364,1.81719 -3.43441,0.59646 -5.38828,0.72861 -6,0.4058 z"
             style="fill:#c2ead6;fill-opacity:0;stroke:none" />
          <path
             transform="matrix(0.23634393,0,0,0.26458333,-70.504295,14.037635)"
             inkscape:connector-curvature="0"
             id="path4580"
             d="m 598.25979,273.43404 c -1.58097,-0.83428 -4.16099,-3.5159 -5.72009,-5.94533 l -1.50704,-2.34832 2.74323,-7.15168 c 2.43844,-6.3571 7.70344,-20.9882 8.51104,-23.65168 0.2377,-0.78394 -0.0958,-1.21606 -1.54354,-2 -1.01571,-0.55 -2.26432,-1.71963 -2.77469,-2.59919 l -0.92794,-1.5992 4.1565,-1.29593 4.15651,-1.29593 2.37457,-7.60487 c 2.57728,-8.25406 4.37624,-15.38391 4.03195,-15.97988 -0.11915,-0.20625 -0.66453,-0.375 -1.21196,-0.375 -2.98425,0 -5.44566,-2.90826 -5.44566,-6.43427 0,-3.4472 -0.29245,-3.33426 8.12972,-3.13962 5.2021,0.12022 11.60525,-0.18263 20.17788,-0.95436 6.90669,-0.62175 12.90163,-0.99844 13.32211,-0.83709 1.27793,0.49039 3.23172,3.47133 4.00816,6.11534 l 0.73414,2.5 -6.03902,-0.1807 c -3.86319,-0.1156 -8.43088,0.13081 -12.67766,0.68392 l -6.63865,0.86462 -1.57279,3.31608 c -1.8927,3.9906 -7.94389,18.82302 -7.94389,19.47174 0,0.27073 0.87453,0.29529 2.125,0.0597 1.16875,-0.22021 4.16383,-0.55521 6.65574,-0.74445 3.70438,-0.2813 4.81996,-0.19449 6.11653,0.47599 2.06485,1.06778 3.10273,3.15436 3.10273,6.23783 v 2.48437 l -5.125,-0.0609 c -2.93433,-0.0349 -7.6524,0.34483 -11.03778,0.88834 -5.39758,0.86657 -5.97087,1.06162 -6.57953,2.23865 -2.58585,5.00047 -9.98769,29.95154 -9.13748,30.80175 0.17325,0.17325 2.52333,-0.15713 5.22239,-0.73418 7.00369,-1.49735 16.48662,-2.96613 21.68304,-3.35841 l 4.46571,-0.33711 0.84388,1.94641 c 0.46414,1.07053 0.94005,3.43994 1.05759,5.26535 l 0.21369,3.31894 -6.50575,-0.26386 c -7.17154,-0.29087 -17.59008,0.45323 -25.44364,1.81719 -3.43441,0.59646 -5.38828,0.72861 -6,0.4058 z"
             style="fill:#c2ead6;fill-opacity:0;stroke:none" />
          <path
             transform="matrix(0.23634393,0,0,0.26458333,-70.504295,14.037635)"
             inkscape:connector-curvature="0"
             id="path4582"
             d="m 598.25979,273.43404 c -1.58097,-0.83428 -4.16099,-3.5159 -5.72009,-5.94533 l -1.50704,-2.34832 2.74323,-7.15168 c 2.43844,-6.3571 7.70344,-20.9882 8.51104,-23.65168 0.2377,-0.78394 -0.0958,-1.21606 -1.54354,-2 -1.01571,-0.55 -2.26432,-1.71963 -2.77469,-2.59919 l -0.92794,-1.5992 4.1565,-1.29593 4.15651,-1.29593 2.37457,-7.60487 c 2.57728,-8.25406 4.37624,-15.38391 4.03195,-15.97988 -0.11915,-0.20625 -0.66453,-0.375 -1.21196,-0.375 -2.98425,0 -5.44566,-2.90826 -5.44566,-6.43427 0,-3.4472 -0.29245,-3.33426 8.12972,-3.13962 5.2021,0.12022 11.60525,-0.18263 20.17788,-0.95436 6.90669,-0.62175 12.90163,-0.99844 13.32211,-0.83709 1.27793,0.49039 3.23172,3.47133 4.00816,6.11534 l 0.73414,2.5 -6.03902,-0.1807 c -3.86319,-0.1156 -8.43088,0.13081 -12.67766,0.68392 l -6.63865,0.86462 -1.57279,3.31608 c -1.8927,3.9906 -7.94389,18.82302 -7.94389,19.47174 0,0.27073 0.87453,0.29529 2.125,0.0597 1.16875,-0.22021 4.16383,-0.55521 6.65574,-0.74445 3.70438,-0.2813 4.81996,-0.19449 6.11653,0.47599 2.06485,1.06778 3.10273,3.15436 3.10273,6.23783 v 2.48437 l -5.125,-0.0609 c -2.93433,-0.0349 -7.6524,0.34483 -11.03778,0.88834 -5.39758,0.86657 -5.97087,1.06162 -6.57953,2.23865 -2.58585,5.00047 -9.98769,29.95154 -9.13748,30.80175 0.17325,0.17325 2.52333,-0.15713 5.22239,-0.73418 7.00369,-1.49735 16.48662,-2.96613 21.68304,-3.35841 l 4.46571,-0.33711 0.84388,1.94641 c 0.46414,1.07053 0.94005,3.43994 1.05759,5.26535 l 0.21369,3.31894 -6.50575,-0.26386 c -7.17154,-0.29087 -17.59008,0.45323 -25.44364,1.81719 -3.43441,0.59646 -5.38828,0.72861 -6,0.4058 z"
             style="fill:#c2ead6;fill-opacity:0;stroke:none" />
          <path
             transform="matrix(0.23634393,0,0,0.26458333,-70.504295,14.037635)"
             inkscape:connector-curvature="0"
             id="path4584"
             d="m 598.25979,273.43404 c -1.58097,-0.83428 -4.16099,-3.5159 -5.72009,-5.94533 l -1.50704,-2.34832 2.74323,-7.15168 c 2.43844,-6.3571 7.70344,-20.9882 8.51104,-23.65168 0.2377,-0.78394 -0.0958,-1.21606 -1.54354,-2 -1.01571,-0.55 -2.26432,-1.71963 -2.77469,-2.59919 l -0.92794,-1.5992 4.1565,-1.29593 4.15651,-1.29593 2.37457,-7.60487 c 2.57728,-8.25406 4.37624,-15.38391 4.03195,-15.97988 -0.11915,-0.20625 -0.66453,-0.375 -1.21196,-0.375 -2.98425,0 -5.44566,-2.90826 -5.44566,-6.43427 0,-3.4472 -0.29245,-3.33426 8.12972,-3.13962 5.2021,0.12022 11.60525,-0.18263 20.17788,-0.95436 6.90669,-0.62175 12.90163,-0.99844 13.32211,-0.83709 1.27793,0.49039 3.23172,3.47133 4.00816,6.11534 l 0.73414,2.5 -6.03902,-0.1807 c -3.86319,-0.1156 -8.43088,0.13081 -12.67766,0.68392 l -6.63865,0.86462 -1.57279,3.31608 c -1.8927,3.9906 -7.94389,18.82302 -7.94389,19.47174 0,0.27073 0.87453,0.29529 2.125,0.0597 1.16875,-0.22021 4.16383,-0.55521 6.65574,-0.74445 3.70438,-0.2813 4.81996,-0.19449 6.11653,0.47599 2.06485,1.06778 3.10273,3.15436 3.10273,6.23783 v 2.48437 l -5.125,-0.0609 c -2.93433,-0.0349 -7.6524,0.34483 -11.03778,0.88834 -5.39758,0.86657 -5.97087,1.06162 -6.57953,2.23865 -2.58585,5.00047 -9.98769,29.95154 -9.13748,30.80175 0.17325,0.17325 2.52333,-0.15713 5.22239,-0.73418 7.00369,-1.49735 16.48662,-2.96613 21.68304,-3.35841 l 4.46571,-0.33711 0.84388,1.94641 c 0.46414,1.07053 0.94005,3.43994 1.05759,5.26535 l 0.21369,3.31894 -6.50575,-0.26386 c -7.17154,-0.29087 -17.59008,0.45323 -25.44364,1.81719 -3.43441,0.59646 -5.38828,0.72861 -6,0.4058 z"
             style="fill:#c2ead6;fill-opacity:0;stroke:none" />
          <path
             transform="matrix(0.23634393,0,0,0.26458333,-70.504295,14.037635)"
             inkscape:connector-curvature="0"
             id="path4586"
             d="m 598.25979,273.43404 c -1.58097,-0.83428 -4.16099,-3.5159 -5.72009,-5.94533 l -1.50704,-2.34832 2.74323,-7.15168 c 2.43844,-6.3571 7.70344,-20.9882 8.51104,-23.65168 0.2377,-0.78394 -0.0958,-1.21606 -1.54354,-2 -1.01571,-0.55 -2.26432,-1.71963 -2.77469,-2.59919 l -0.92794,-1.5992 4.1565,-1.29593 4.15651,-1.29593 2.37457,-7.60487 c 2.57728,-8.25406 4.37624,-15.38391 4.03195,-15.97988 -0.11915,-0.20625 -0.66453,-0.375 -1.21196,-0.375 -2.98425,0 -5.44566,-2.90826 -5.44566,-6.43427 0,-3.4472 -0.29245,-3.33426 8.12972,-3.13962 5.2021,0.12022 11.60525,-0.18263 20.17788,-0.95436 6.90669,-0.62175 12.90163,-0.99844 13.32211,-0.83709 1.27793,0.49039 3.23172,3.47133 4.00816,6.11534 l 0.73414,2.5 -6.03902,-0.1807 c -3.86319,-0.1156 -8.43088,0.13081 -12.67766,0.68392 l -6.63865,0.86462 -1.57279,3.31608 c -1.8927,3.9906 -7.94389,18.82302 -7.94389,19.47174 0,0.27073 0.87453,0.29529 2.125,0.0597 1.16875,-0.22021 4.16383,-0.55521 6.65574,-0.74445 3.70438,-0.2813 4.81996,-0.19449 6.11653,0.47599 2.06485,1.06778 3.10273,3.15436 3.10273,6.23783 v 2.48437 l -5.125,-0.0609 c -2.93433,-0.0349 -7.6524,0.34483 -11.03778,0.88834 -5.39758,0.86657 -5.97087,1.06162 -6.57953,2.23865 -2.58585,5.00047 -9.98769,29.95154 -9.13748,30.80175 0.17325,0.17325 2.52333,-0.15713 5.22239,-0.73418 7.00369,-1.49735 16.48662,-2.96613 21.68304,-3.35841 l 4.46571,-0.33711 0.84388,1.94641 c 0.46414,1.07053 0.94005,3.43994 1.05759,5.26535 l 0.21369,3.31894 -6.50575,-0.26386 c -7.17154,-0.29087 -17.59008,0.45323 -25.44364,1.81719 -3.43441,0.59646 -5.38828,0.72861 -6,0.4058 z"
             style="fill:#c2ead6;fill-opacity:0;stroke:none" />
          <path
             transform="matrix(0.23634393,0,0,0.26458333,-70.504295,14.037635)"
             inkscape:connector-curvature="0"
             id="path4588"
             d="m 598.25979,273.43404 c -1.58097,-0.83428 -4.16099,-3.5159 -5.72009,-5.94533 l -1.50704,-2.34832 2.74323,-7.15168 c 2.43844,-6.3571 7.70344,-20.9882 8.51104,-23.65168 0.2377,-0.78394 -0.0958,-1.21606 -1.54354,-2 -1.01571,-0.55 -2.26432,-1.71963 -2.77469,-2.59919 l -0.92794,-1.5992 4.1565,-1.29593 4.15651,-1.29593 2.37457,-7.60487 c 2.57728,-8.25406 4.37624,-15.38391 4.03195,-15.97988 -0.11915,-0.20625 -0.66453,-0.375 -1.21196,-0.375 -2.98425,0 -5.44566,-2.90826 -5.44566,-6.43427 0,-3.4472 -0.29245,-3.33426 8.12972,-3.13962 5.2021,0.12022 11.60525,-0.18263 20.17788,-0.95436 6.90669,-0.62175 12.90163,-0.99844 13.32211,-0.83709 1.27793,0.49039 3.23172,3.47133 4.00816,6.11534 l 0.73414,2.5 -6.03902,-0.1807 c -3.86319,-0.1156 -8.43088,0.13081 -12.67766,0.68392 l -6.63865,0.86462 -1.57279,3.31608 c -1.8927,3.9906 -7.94389,18.82302 -7.94389,19.47174 0,0.27073 0.87453,0.29529 2.125,0.0597 1.16875,-0.22021 4.16383,-0.55521 6.65574,-0.74445 3.70438,-0.2813 4.81996,-0.19449 6.11653,0.47599 2.06485,1.06778 3.10273,3.15436 3.10273,6.23783 v 2.48437 l -5.125,-0.0609 c -2.93433,-0.0349 -7.6524,0.34483 -11.03778,0.88834 -5.39758,0.86657 -5.97087,1.06162 -6.57953,2.23865 -2.58585,5.00047 -9.98769,29.95154 -9.13748,30.80175 0.17325,0.17325 2.52333,-0.15713 5.22239,-0.73418 7.00369,-1.49735 16.48662,-2.96613 21.68304,-3.35841 l 4.46571,-0.33711 0.84388,1.94641 c 0.46414,1.07053 0.94005,3.43994 1.05759,5.26535 l 0.21369,3.31894 -6.50575,-0.26386 c -7.17154,-0.29087 -17.59008,0.45323 -25.44364,1.81719 -3.43441,0.59646 -5.38828,0.72861 -6,0.4058 z"
             style="fill:#c2ead6;fill-opacity:0;stroke:none" />
          <path
             transform="matrix(0.23634393,0,0,0.26458333,-70.504295,14.037635)"
             inkscape:connector-curvature="0"
             id="path4590"
             d="m 544.35267,272.99983 c -4.99688,-0.58206 -10.93639,-3.57471 -13.98542,-7.04663 -1.26363,-1.43889 -2.42141,-3.10019 -2.57285,-3.69177 -0.74945,-2.92762 13.37233,-40.04929 20.70406,-54.4244 1.6831,-3.3 2.86141,-6.06955 2.61847,-6.15457 -0.78044,-0.27311 -7.73814,2.86012 -11.49572,5.17682 -4.2234,2.6039 -4.25786,2.59382 -6.50414,-1.90137 -2.34094,-4.68465 -2.16124,-5.40968 1.8606,-7.50706 3.69908,-1.92905 11.33557,-4.50115 16.73763,-5.63751 2.24016,-0.47123 6.43862,-0.72631 11.95481,-0.72631 8.35329,0 8.56651,0.0268 12.18433,1.53293 6.71865,2.79698 10.50231,7.27492 11.27523,13.34415 1.06454,8.35917 -2.22506,15.72253 -9.4857,21.23259 l -1.7087,1.29671 2.15366,2.42181 c 1.18452,1.332 2.74093,3.65931 3.4587,5.17181 1.15058,2.42453 1.30504,3.37458 1.30504,8.02725 0,5.08761 -0.0672,5.41309 -1.86906,9.05771 -6.23956,12.6205 -22.57877,21.46469 -36.63094,19.82784 z m 13.24372,-10.22341 c 8.54166,-2.85529 15.18363,-8.12373 18.37021,-14.57134 1.64693,-3.33233 1.86163,-4.19955 1.87311,-7.56589 0.011,-3.22536 -0.18777,-4.14358 -1.31022,-6.05276 -0.72775,-1.23784 -1.80464,-2.68633 -2.3931,-3.21888 -1.06018,-0.95945 -1.11868,-0.95633 -6.42682,0.34324 -2.9463,0.72133 -7.1569,1.45578 -9.3569,1.63212 -4.29816,0.34452 -6.22028,-0.0922 -8.08226,-1.83618 l -1.08225,-1.0137 -0.55672,1.04024 c -2.33636,4.36553 -10.05521,26.83169 -10.18282,29.63769 -0.0931,2.04747 -0.0367,2.12918 1.90405,2.75867 3.18301,1.0324 12.58677,0.4035 17.24372,-1.15321 z m 3.25628,-38.64689 c 7.74771,-0.35767 8.11826,-0.42475 11.75,-2.12715 7.90178,-3.704 11.62766,-8.25552 11.59358,-14.16266 -0.043,-7.45386 -4.9669,-10.65323 -15.57307,-10.11884 -6.13834,0.30928 -7.17149,0.60278 -6.75387,1.9186 0.18772,0.59146 -1.11701,3.91644 -3.55745,9.06579 -3.73943,7.89025 -7.20919,15.70149 -7.20919,16.22957 0,0.14255 0.39375,0.10277 0.875,-0.0884 0.48125,-0.19117 4.475,-0.51378 8.875,-0.7169 z"
             style="fill:#c2ead6;fill-opacity:0;stroke:none" />
          <path
             transform="matrix(0.23634393,0,0,0.26458333,-70.504295,14.037635)"
             inkscape:connector-curvature="0"
             id="path2415"
             d="m 1047.5948,270.91568 c -2.7283,-3.94374 -4.7574,-9.55222 -8.3069,-22.96016 -1.7166,-6.48441 -3.415,-12.06924 -3.774,-12.41073 -0.3591,-0.34149 -1.8359,-0.89887 -3.2817,-1.23863 -2.5389,-0.59662 -2.7512,-0.2849 -6.212,9.12089 -3.3544,9.11655 -6.7327,20.1613 -8.1021,26.48863 -0.7883,3.64201 -2.1435,3.46833 -6.159,-0.78931 l -3.338,-3.5393 2.0799,-5.2107 c 13.1521,-32.95064 21.6282,-57.27833 20.3869,-58.51382 -0.3851,-0.38328 -3.8141,0.97028 -7.6201,3.00792 l -6.92,3.70479 -1.4669,-2.23887 c -0.8069,-1.23137 -1.5914,-3.34853 -1.7435,-4.70479 -0.2282,-2.03594 0.5082,-2.85494 4.2236,-4.6969 10.5487,-5.22978 28.2527,-7.71517 37.2189,-5.22501 4.4286,1.22995 9.2911,5.10784 11.317,9.02545 0.8052,1.55717 1.4542,5.21607 1.4421,8.13088 -0.048,11.60047 -7.5526,20.31705 -21.3307,24.77578 -3.614,1.16952 -3.8147,1.44127 -3.2386,4.38533 0.7967,4.07228 7.4157,17.89696 11.9991,25.06192 1.9757,3.08851 3.5922,6.00497 3.5922,6.48104 0,1.31881 -4.676,4.09559 -6.8967,4.09559 -1.0819,0 -2.8232,-1.2375 -3.8695,-2.75 z m 2.2325,-45.1537 c 6.6865,-2.35011 10.3033,-5.05271 13.2785,-9.92221 3.8192,-6.2507 2.4876,-13.96828 -2.8899,-16.74909 -1.5621,-0.8078 -5.5924,-1.425 -9.3053,-1.425 -5.7098,0 -6.5496,0.23761 -6.5496,1.853 0,1.01915 -2.4138,6.98165 -5.364,13.25 -2.9501,6.26835 -5.7026,12.47908 -6.1164,13.80163 -0.7517,2.40203 -0.746,2.40394 5.3374,1.7681 3.3494,-0.35008 8.5736,-1.50948 11.6093,-2.57643 z"
             style="fill:none;fill-opacity:1;stroke:none" />
          <text
             transform="matrix(0.23628443,0,0,0.26464996,-70.504295,14.037635)"
             id="text2475"
             y="264.83011"
             x="698.68671"
             style="font-style:normal;font-variant:normal;font-weight:normal;font-stretch:normal;font-size:44.73757553px;line-height:1.25;font-family:'Sitka Display';-inkscape-font-specification:'Sitka Display';letter-spacing:0px;word-spacing:0px;fill:#c2ead6;fill-opacity:0.94117647;stroke:none;stroke-width:1.11843944"
             xml:space="preserve"><tspan
               style="font-style:normal;font-variant:normal;font-weight:normal;font-stretch:normal;font-size:102.89642334px;font-family:'Kaushan Script';-inkscape-font-specification:'Kaushan Script';fill:#c2ead6;fill-opacity:0.94117647;stroke-width:1.11843944"
               y="264.83011"
               x="698.68671"
               id="tspan2473"
               sodipodi:role="line">WINNER</tspan></text>
          <path
             transform="matrix(0.26458333,0,0,0.26458333,80.569539,107.86873)"
             inkscape:connector-curvature="0"
             id="path2439"
             d="m 314.81087,-54.510904 c -2.94239,-0.154153 -7.8161,-0.455906 -17.01476,-1.053457 -61.66909,-4.006068 -115.8144,-6.948165 -160.11549,-8.700207 -7.511,-0.297048 -22.41815,-0.839875 -23.09145,-0.840848 -0.17969,-2.6e-4 -0.19888,-0.04293 -0.19888,-0.44223 v -0.441941 l 0.72921,8.1e-4 c 2.45056,0.0027 27.39432,0.968526 43.33238,1.677796 9.99745,0.444902 24.4185,1.138391 34.02952,1.636432 11.05197,0.572712 23.48513,1.237566 28.0633,1.500665 1.28826,0.07403 4.11227,0.234489 6.27557,0.356567 7.32348,0.413273 22.92238,1.325248 28.72621,1.679452 18.32098,1.118115 28.67226,1.768116 42.91255,2.694662 0.7292,0.04745 3.15546,0.2053 5.39169,0.350785 4.41322,0.287119 9.39975,0.581782 11.22532,0.663325 0.63197,0.02823 1.41752,0.07407 1.74567,0.10188 l 0.59662,0.05056 v 0.432971 0.432971 l -0.59662,-0.01305 c -0.32815,-0.0072 -1.23302,-0.04639 -2.01084,-0.08714 z"
             style="fill:#eca8af;fill-opacity:0.94117647;stroke:none;stroke-width:0.08838835;stroke-opacity:1" />
          <path
             sodipodi:nodetypes="csccccccccc"
             transform="matrix(0.26458333,0,0,0.26458333,80.569539,107.86873)"
             inkscape:connector-curvature="0"
             id="path2441"
             d="m 327.92068,-54.026396 c -2.98332,-0.07482 -7.21034,-0.2209 -9.30287,-0.321494 l -1.17115,-0.0563 -5e-5,-0.451183 -4e-5,-0.451184 1.48055,0.05935 c 16.30041,0.65339 30.65146,0.520037 44.74665,-0.415795 53.52252,-7.259243 96.12931,-27.749293 97.39892,-65.986518 -1.34953,52.550953 -74.05381,66.395592 -110.12689,67.543518 -3.16523,0.118126 -19.26922,0.173804 -23.02517,0.07961 z"
             style="fill:#eca8af;fill-opacity:0.94117647;stroke:none;stroke-width:0.08838835;stroke-opacity:1" />
          <path
             sodipodi:nodetypes="cscccsccccccscc"
             inkscape:connector-curvature="0"
             d="m 189.08789,197.85547 c -4.6648,0.0122 -8.58167,0.0371 -11.02148,0.0781 -44.28861,0.74428 -75.33209,3.00115 -111.625004,9.19922 -42.412693,8.17756 23.721036,-2.64353 35.687504,-3.99023 23.09647,-2.53789 45.95135,-3.83202 76.5625,-4.33399 9.86298,-0.16172 41.97827,-0.0823 52.3125,0.12891 13.51627,0.27625 26.8522,0.61075 35.1875,0.88477 2.02813,0.0667 4.01095,0.12237 4.40625,0.12304 l 0.71875,0.002 v -0.42188 -0.41992 l -2.46875,-0.084 c -8.71892,-0.29538 -24.08301,-0.69094 -37.21875,-0.95898 -7.81584,-0.15948 -28.54662,-0.24367 -42.54102,-0.20703 z"
             style="fill:#eca8af;fill-opacity:0.94117647;stroke:none;stroke-width:0.12499998;stroke-opacity:1"
             transform="matrix(0.26458333,0,0,0.26458333,39.059386,37.735409)"
             id="path2447" />
        </g>
      </g>
    </g>
    <g
       id="g369"
       transform="translate(-252.94388,43.404571)" />
  </g>
</svg>
