<?xml version="1.0" encoding="UTF-8" standalone="no"?>
<!-- Created with Inkscape (http://www.inkscape.org/) -->

<svg
   xmlns:osb="http://www.openswatchbook.org/uri/2009/osb"
   xmlns:dc="http://purl.org/dc/elements/1.1/"
   xmlns:cc="http://creativecommons.org/ns#"
   xmlns:rdf="http://www.w3.org/1999/02/22-rdf-syntax-ns#"
   xmlns:svg="http://www.w3.org/2000/svg"
   xmlns="http://www.w3.org/2000/svg"
   xmlns:xlink="http://www.w3.org/1999/xlink"
   xmlns:sodipodi="http://sodipodi.sourceforge.net/DTD/sodipodi-0.dtd"
   xmlns:inkscape="http://www.inkscape.org/namespaces/inkscape"
   width="171.40562mm"
   height="41.489689mm"
   viewBox="0 0 171.40561 41.489689"
   version="1.1"
   id="svg8"
   inkscape:version="0.92.1 r15371"
   sodipodi:docname="logoWhite.svg"
   inkscape:export-filename="C:\Users\KirKa\Documents\testing\Katya\Material\logoWhite.png"
   inkscape:export-xdpi="96"
   inkscape:export-ydpi="96">
  <defs
     id="defs2">
    <linearGradient
       id="linearGradient2377"
       osb:paint="solid">
      <stop
         style="stop-color:#000000;stop-opacity:1;"
         offset="0"
         id="stop2375" />
    </linearGradient>
    <clipPath
       clipPathUnits="userSpaceOnUse"
       id="clipPath551">
      <use
         x="0"
         y="0"
         xlink:href="#g547"
         id="use553"
         width="100%"
         height="100%"
         transform="translate(-153.79415,97.103933)" />
    </clipPath>
    <filter
       style="color-interpolation-filters:sRGB"
       height="1.4"
       width="1.4"
       y="-0.2"
       x="-0.2"
       inkscape:label="Outline"
       id="filter4388">
      <feGaussianBlur
         in="SourceAlpha"
         stdDeviation="4"
         result="blur1"
         id="feGaussianBlur4364" />
      <feComposite
         in="SourceGraphic"
         in2="blur1"
         operator="out"
         result="composite1"
         id="feComposite4366" />
      <feColorMatrix
         values="1 0 0 0 0 0 1 0 0 0 0 0 1 0 0 0 0 0 100 -1 "
         result="colormatrix1"
         id="feColorMatrix4368" />
      <feGaussianBlur
         stdDeviation="0.5"
         result="blur2"
         id="feGaussianBlur4370" />
      <feComposite
         in="blur2"
         in2="blur2"
         operator="over"
         result="composite2"
         id="feComposite4372" />
      <feColorMatrix
         values="1 0 0 0 0 0 1 0 0 0 0 0 1 0 0 0 0 0 50 -5 "
         result="colormatrix2"
         id="feColorMatrix4374" />
      <feGaussianBlur
         stdDeviation="1"
         result="blur3"
         id="feGaussianBlur4376" />
      <feColorMatrix
         values="1 0 0 0 0 0 1 0 0 0 0 0 1 0 0 0 0 0 5 -1 "
         result="colormatrix3"
         id="feColorMatrix4378" />
      <feFlood
         flood-opacity="1"
         flood-color="rgb(0,0,0)"
         result="flood"
         id="feFlood4380" />
      <feComposite
         in="flood"
         in2="colormatrix3"
         operator="in"
         result="composite3"
         id="feComposite4382" />
      <feComposite
         in="SourceGraphic"
         in2="colormatrix3"
         operator="out"
         result="composite4"
         id="feComposite4384" />
      <feComposite
         in="composite4"
         in2="composite3"
         k2="1"
         k3="1"
         operator="arithmetic"
         result="composite5"
         id="feComposite4386"
         k1="0"
         k4="0" />
    </filter>
    <filter
       style="color-interpolation-filters:sRGB"
       height="1.4"
       width="1.4"
       y="-0.2"
       x="-0.2"
       inkscape:label="Outline"
       id="filter4416">
      <feGaussianBlur
         in="SourceAlpha"
         stdDeviation="4"
         result="blur1"
         id="feGaussianBlur4392" />
      <feComposite
         in="SourceGraphic"
         in2="blur1"
         operator="out"
         result="composite1"
         id="feComposite4394" />
      <feColorMatrix
         values="1 0 0 0 0 0 1 0 0 0 0 0 1 0 0 0 0 0 100 -1 "
         result="colormatrix1"
         id="feColorMatrix4396" />
      <feGaussianBlur
         stdDeviation="0.5"
         result="blur2"
         id="feGaussianBlur4398" />
      <feComposite
         in="blur2"
         in2="blur2"
         operator="over"
         result="composite2"
         id="feComposite4400" />
      <feColorMatrix
         values="1 0 0 0 0 0 1 0 0 0 0 0 1 0 0 0 0 0 50 -5 "
         result="colormatrix2"
         id="feColorMatrix4402" />
      <feGaussianBlur
         stdDeviation="1"
         result="blur3"
         id="feGaussianBlur4404" />
      <feColorMatrix
         values="1 0 0 0 0 0 1 0 0 0 0 0 1 0 0 0 0 0 5 -1 "
         result="colormatrix3"
         id="feColorMatrix4406" />
      <feFlood
         flood-opacity="1"
         flood-color="rgb(0,0,0)"
         result="flood"
         id="feFlood4408" />
      <feComposite
         in="flood"
         in2="colormatrix3"
         operator="in"
         result="composite3"
         id="feComposite4410" />
      <feComposite
         in="SourceGraphic"
         in2="colormatrix3"
         operator="out"
         result="composite4"
         id="feComposite4412" />
      <feComposite
         in="composite4"
         in2="composite3"
         k2="1"
         k3="1"
         operator="arithmetic"
         result="composite5"
         id="feComposite4414"
         k1="0"
         k4="0" />
    </filter>
    <filter
       style="color-interpolation-filters:sRGB"
       height="1.4"
       width="1.4"
       y="-0.2"
       x="-0.2"
       inkscape:label="Outline"
       id="filter4626">
      <feGaussianBlur
         in="SourceAlpha"
         stdDeviation="4"
         result="blur1"
         id="feGaussianBlur4602" />
      <feComposite
         in="SourceGraphic"
         in2="blur1"
         operator="out"
         result="composite1"
         id="feComposite4604" />
      <feColorMatrix
         values="1 0 0 0 0 0 1 0 0 0 0 0 1 0 0 0 0 0 100 -0 "
         result="colormatrix1"
         id="feColorMatrix4606" />
      <feGaussianBlur
         stdDeviation="0.21"
         result="blur2"
         id="feGaussianBlur4608" />
      <feComposite
         in="blur2"
         in2="blur2"
         operator="over"
         result="composite2"
         id="feComposite4610" />
      <feColorMatrix
         values="1 0 0 0 0 0 1 0 0 0 0 0 1 0 0 0 0 0 1 -0 "
         result="colormatrix2"
         id="feColorMatrix4612" />
      <feGaussianBlur
         stdDeviation="0.01"
         result="blur3"
         id="feGaussianBlur4614" />
      <feColorMatrix
         values="1 0 0 0 0 0 1 0 0 0 0 0 1 0 0 0 0 0 5 -1 "
         result="colormatrix3"
         id="feColorMatrix4616" />
      <feFlood
         flood-opacity="1"
         flood-color="rgb(0,0,0)"
         result="flood"
         id="feFlood4618" />
      <feComposite
         in="flood"
         in2="colormatrix3"
         operator="in"
         result="composite3"
         id="feComposite4620" />
      <feComposite
         in="SourceGraphic"
         in2="colormatrix3"
         operator="out"
         result="composite4"
         id="feComposite4622" />
      <feComposite
         in="composite4"
         in2="composite3"
         k2="1"
         k3="1"
         operator="arithmetic"
         result="composite5"
         id="feComposite4624"
         k1="0"
         k4="0" />
    </filter>
    <filter
       style="color-interpolation-filters:sRGB"
       height="1.4"
       width="1.4"
       y="-0.2"
       x="-0.2"
       inkscape:label="Outline"
       id="filter1480">
      <feGaussianBlur
         in="SourceAlpha"
         stdDeviation="4"
         result="blur1"
         id="feGaussianBlur1456" />
      <feComposite
         in="SourceGraphic"
         in2="blur1"
         operator="out"
         result="composite1"
         id="feComposite1458" />
      <feColorMatrix
         values="1 0 0 0 0 0 1 0 0 0 0 0 1 0 0 0 0 0 100 -0 "
         result="colormatrix1"
         id="feColorMatrix1460" />
      <feGaussianBlur
         stdDeviation="0.41"
         result="blur2"
         id="feGaussianBlur1462" />
      <feComposite
         in="blur2"
         in2="blur2"
         operator="over"
         result="composite2"
         id="feComposite1464" />
      <feColorMatrix
         values="1 0 0 0 0 0 1 0 0 0 0 0 1 0 0 0 0 0 1 -0 "
         result="colormatrix2"
         id="feColorMatrix1466" />
      <feGaussianBlur
         stdDeviation="0.01"
         result="blur3"
         id="feGaussianBlur1468" />
      <feColorMatrix
         values="1 0 0 0 0 0 1 0 0 0 0 0 1 0 0 0 0 0 5 -1 "
         result="colormatrix3"
         id="feColorMatrix1470" />
      <feFlood
         flood-opacity="0.941176"
         flood-color="rgb(194,234,214)"
         result="flood"
         id="feFlood1472" />
      <feComposite
         in="flood"
         in2="colormatrix3"
         operator="in"
         result="composite3"
         id="feComposite1474" />
      <feComposite
         in="SourceGraphic"
         in2="colormatrix3"
         operator="out"
         result="composite4"
         id="feComposite1476" />
      <feComposite
         in="composite4"
         in2="composite3"
         k2="1"
         k3="1"
         operator="arithmetic"
         result="fbSourceGraphic"
         id="feComposite1478"
         k1="0"
         k4="0" />
      <feColorMatrix
         result="fbSourceGraphicAlpha"
         in="fbSourceGraphic"
         values="0 0 0 -1 0 0 0 0 -1 0 0 0 0 -1 0 0 0 0 1 0"
         id="feColorMatrix1482" />
      <feGaussianBlur
         id="feGaussianBlur1484"
         in="fbSourceGraphicAlpha"
         stdDeviation="4"
         result="blur1" />
      <feComposite
         in2="blur1"
         id="feComposite1486"
         in="fbSourceGraphic"
         operator="out"
         result="composite1" />
      <feColorMatrix
         id="feColorMatrix1488"
         values="1 0 0 0 0 0 1 0 0 0 0 0 1 0 0 0 0 0 100 -0 "
         result="colormatrix1" />
      <feGaussianBlur
         id="feGaussianBlur1490"
         stdDeviation="0.61"
         result="blur2" />
      <feComposite
         in2="blur2"
         id="feComposite1492"
         in="blur2"
         operator="over"
         result="composite2" />
      <feColorMatrix
         id="feColorMatrix1494"
         values="1 0 0 0 0 0 1 0 0 0 0 0 1 0 0 0 0 0 1 -0 "
         result="colormatrix2" />
      <feGaussianBlur
         id="feGaussianBlur1496"
         stdDeviation="0.01"
         result="blur3" />
      <feColorMatrix
         id="feColorMatrix1498"
         values="1 0 0 0 0 0 1 0 0 0 0 0 1 0 0 0 0 0 5 -1 "
         result="colormatrix3" />
      <feFlood
         id="feFlood1500"
         flood-opacity="0.941176"
         flood-color="rgb(194,234,214)"
         result="flood" />
      <feComposite
         in2="colormatrix3"
         id="feComposite1502"
         in="flood"
         operator="in"
         result="composite3" />
      <feComposite
         in2="colormatrix3"
         id="feComposite1504"
         in="fbSourceGraphic"
         operator="out"
         result="composite4" />
      <feComposite
         in2="composite3"
         id="feComposite1506"
         in="composite4"
         k2="1"
         k3="1"
         operator="arithmetic"
         result="composite5"
         k1="0"
         k4="0" />
    </filter>
  </defs>
  <sodipodi:namedview
     id="base"
     pagecolor="#ffffff"
     bordercolor="#666666"
     borderopacity="1.0"
     inkscape:pageopacity="0.0"
     inkscape:pageshadow="2"
     inkscape:zoom="1.415"
     inkscape:cx="229.61875"
     inkscape:cy="104.10486"
     inkscape:document-units="mm"
     inkscape:current-layer="g184"
     showgrid="false"
     inkscape:window-width="1920"
     inkscape:window-height="1017"
     inkscape:window-x="-8"
     inkscape:window-y="-8"
     inkscape:window-maximized="1"
     inkscape:snap-grids="false"
     inkscape:snap-to-guides="false"
     inkscape:snap-others="false"
     inkscape:object-nodes="false"
     inkscape:snap-nodes="false"
     fit-margin-top="0"
     fit-margin-left="-10.6"
     fit-margin-right="-10"
     fit-margin-bottom="0"
     inkscape:pagecheckerboard="true" />
  <metadata
     id="metadata5">
    <rdf:RDF>
      <cc:Work
         rdf:about="">
        <dc:format>image/svg+xml</dc:format>
        <dc:type
           rdf:resource="http://purl.org/dc/dcmitype/StillImage" />
        <dc:title></dc:title>
      </cc:Work>
    </rdf:RDF>
  </metadata>
  <g
     inkscape:label="Layer 1"
     inkscape:groupmode="layer"
     id="layer1"
     transform="translate(-52.291518,-52.097146)">
    <g
       id="g165" />
    <path
       style="fill:#000000;stroke-width:0.08466667"
       d=""
       id="path108"
       inkscape:connector-curvature="0" />
    <path
       style="fill:#000000;stroke-width:0.08466667"
       d=""
       id="path106"
       inkscape:connector-curvature="0" />
    <path
       style="fill:#000000;stroke-width:0.08466667"
       d=""
       id="path104"
       inkscape:connector-curvature="0" />
    <path
       style="fill:#000000;stroke-width:0.08466667"
       d=""
       id="path102"
       inkscape:connector-curvature="0" />
    <path
       style="fill:#000000;stroke-width:0.08466667"
       d=""
       id="path100"
       inkscape:connector-curvature="0" />
    <path
       style="fill:#000000;stroke-width:0.08466667"
       d=""
       id="path98"
       inkscape:connector-curvature="0" />
    <path
       style="fill:#000000;stroke-width:0.08466667"
       d=""
       id="path96"
       inkscape:connector-curvature="0" />
    <path
       style="fill:#000000;stroke-width:0.08466667"
       d=""
       id="path94"
       inkscape:connector-curvature="0" />
    <path
       style="fill:#000000;stroke-width:0.08466667"
       d=""
       id="path92"
       inkscape:connector-curvature="0" />
    <path
       style="fill:#eca8af;fill-opacity:0.94117647;stroke:none;stroke-width:0.125;stroke-opacity:1"
       d=""
       id="path2445"
       inkscape:connector-curvature="0"
       transform="matrix(0.26458333,0,0,0.26458333,80.569539,107.86873)" />
    <g
       id="g2922">
      <g
         style="stroke:none"
         transform="matrix(0.26426981,0,0,0.26458333,-86.24171,17.17137)"
         id="g4809">
        <g
           transform="matrix(0.89432815,0,0,1,59.550561,-11.844039)"
           style="stroke:none"
           id="g4729">
          <path
             sodipodi:nodetypes="csc"
             inkscape:connector-curvature="0"
             id="path5032"
             d="M 474.71417,296.17451 C 581.6867,280.44964 589.17313,264.40704 938.42,287.34606 c 148.8303,9.77538 189.3065,-49.66879 203.5454,-84.98168"
             style="fill:none;stroke:none" />
          <path
             transform="translate(579.99844,341.79318)"
             inkscape:connector-curvature="0"
             id="path95"
             d=""
             style="fill:#2ca02c;stroke:none" />
        </g>
        <g
           style="stroke:none"
           id="g4731" />
        <g
           style="stroke:none"
           id="g4733" />
        <g
           style="stroke:none"
           id="g4735" />
        <g
           style="stroke:none"
           id="g4737" />
        <g
           style="stroke:none"
           id="g4739" />
        <g
           style="stroke:none"
           id="g4741" />
        <g
           style="stroke:none"
           id="g4743" />
        <g
           style="stroke:none"
           id="g4745" />
        <g
           style="stroke:none"
           id="g4747" />
        <g
           style="stroke:none"
           id="g4749" />
        <g
           style="stroke:none"
           id="g4751" />
        <g
           style="stroke:none"
           id="g4753" />
        <g
           style="stroke:none"
           id="g4755" />
        <g
           style="stroke:none"
           id="g4757" />
        <g
           style="stroke:none"
           id="g4759" />
        <path
           transform="translate(579.99844,341.79318)"
           inkscape:connector-curvature="0"
           id="path2431"
           d=""
           style="fill:#faea95;fill-opacity:0.94117647;stroke:none" />
      </g>
      <g
         id="g184">
        <g
           id="g547"
           inkscape:label="Clip"
           transform="matrix(10.757468,0,0,11.017706,-764.53985,-1015.5525)">
          <path
             sodipodi:nodetypes="cccccccccccccccccccccccccccccccccccccccccccccccccccccccccccccccccccccccccccccccccccccccccccccccc"
             style="fill:#ffffff;fill-opacity:0.94117647;stroke:none;stroke-width:0.00584514;stroke-opacity:1"
             d="m 91.189743,99.22995 c -0.283331,-0.05964 -0.362689,-0.335616 -0.512532,-0.537743 -0.01673,-0.02209 -0.02375,-0.02724 -0.03344,-0.02452 -0.0083,0.0023 -0.02992,0.03546 -0.06657,0.101985 -0.06081,0.110358 -0.09472,0.152462 -0.15331,0.19033 -0.09269,0.05991 -0.207479,0.09373 -0.385338,0.113565 -0.131347,0.01462 -0.154911,-0.0037 -0.216812,-0.169241 -0.0419,-0.112027 -0.05569,-0.184436 -0.05123,-0.269354 0.0045,-0.08587 0.01992,-0.139946 0.09383,-0.329041 l 0.06596,-0.16875 -0.09713,0.02042 c -0.103984,0.02185 -0.146399,0.02521 -0.223079,0.01768 -0.16082,-0.0158 -0.344954,-0.10217 -0.415035,-0.194688 -0.08794,-0.123576 -0.02583,-0.221115 0.06542,-0.280878 0.06786,-0.04382 0.116498,-0.06572 0.193932,-0.08736 0.117796,-0.03292 0.23066,-0.03573 0.369818,-0.0092 0.106504,0.02031 0.177074,0.0475 0.32434,0.124967 0.143447,0.07546 0.181545,0.091 0.221634,0.09038 0.04177,-6.41e-4 0.06268,-0.02469 0.06986,-0.08033 0.0066,-0.05111 0.04809,-0.09057 0.132171,-0.125727 0.07123,-0.02978 0.11241,-0.05832 0.127513,-0.08835 0.01183,-0.02353 0.0088,-0.09239 -0.007,-0.158695 -0.01778,-0.07465 -0.03688,-0.109853 -0.09189,-0.169568 -0.03001,-0.03257 -0.04986,-0.04735 -0.100316,-0.07469 -0.106747,-0.05784 -0.204913,-0.06629 -0.322554,-0.02776 -0.07233,0.02368 -0.121768,0.05584 -0.166135,0.108054 -0.0634,0.07461 -0.07267,0.151183 -0.02445,0.202071 0.03834,0.04046 0.09973,0.04269 0.127017,0.0046 0.01933,-0.02697 0.03652,-0.04421 0.04143,-0.04154 0.01232,0.0067 0.01145,0.03161 -0.0019,0.05356 -0.03141,0.05164 -0.104981,0.06846 -0.166439,0.03805 -0.05807,-0.02873 -0.08498,-0.09077 -0.06966,-0.160566 0.03699,-0.168419 0.272174,-0.296055 0.475889,-0.258268 0.121633,0.02256 0.231172,0.09376 0.294589,0.191474 0.04352,0.06705 0.0656,0.161015 0.06161,0.262075 -0.0025,0.06337 -3.99e-4,0.07279 0.02048,0.09159 0.02142,0.01927 0.05785,0.0239 0.10618,0.01348 l 0.04052,-0.0087 0.02741,-0.03805 c 0.06213,-0.08626 0.130675,-0.136122 0.221785,-0.161341 0.06987,-0.01934 0.116723,-0.0211 0.195296,-0.0073 0.101854,0.01785 0.200617,0.07727 0.270266,0.162597 0.130086,0.159364 0.135643,0.388838 0.01071,0.444428 -0.04901,0.02182 -0.114626,0.0072 -0.155008,-0.03439 -0.03862,-0.03978 -0.04522,-0.110809 -0.01178,-0.125643 0.01403,-0.0062 0.01645,-1.38e-4 0.01597,0.03999 -7.49e-4,0.0506 0.02606,0.07925 0.0786,0.0854 0.03068,0.0035 0.05055,-0.0026 0.07522,-0.02307 0.04511,-0.0375 0.06027,-0.11075 0.04103,-0.1986 -0.02794,-0.127407 -0.135134,-0.248314 -0.258026,-0.290891 -0.07969,-0.0276 -0.175327,-0.03252 -0.245618,-0.0126 -0.125014,0.03541 -0.244591,0.16456 -0.261645,0.282573 -0.0027,0.01853 -0.0029,0.06762 -4.58e-4,0.109078 0.0077,0.132062 -0.01199,0.1827 -0.08785,0.225737 -0.08533,0.04841 -0.07617,0.06512 0.121345,0.221385 0.191225,0.145968 0.349819,0.342855 0.414944,0.557636 0.06138,0.185547 0.04409,0.433111 -0.179564,0.403749 z m 0.107383,-0.05455 c 0.02395,-0.02092 0.0431,-0.06027 0.05215,-0.107231 0.03763,-0.195049 -0.151555,-0.54374 -0.403298,-0.743298 -0.07538,-0.05976 -0.166356,-0.115694 -0.181349,-0.111504 -0.01677,0.0047 -0.02531,0.03453 -0.02725,0.09539 0.0163,0.321229 0.07521,0.637057 0.338937,0.831251 0.07381,0.03176 0.155111,0.08265 0.220801,0.03539 z m -0.878158,-0.28252 c 0.03004,-0.02628 0.03209,-0.04037 0.0094,-0.06482 -0.02919,-0.03152 -0.08726,-0.06434 -0.198455,-0.112183 -0.178377,-0.07675 -0.270633,-0.133222 -0.305165,-0.186799 -0.05737,-0.08902 -0.135221,-0.03466 -0.117495,0.08204 0.01209,0.07955 0.09358,0.162114 0.229746,0.232735 0.162122,0.08408 0.318846,0.104202 0.381932,0.04903 z m 0.229198,-0.305714 c 0.0089,-0.01871 -0.0023,-0.05446 -0.02533,-0.08087 -0.02726,-0.0313 -0.108228,-0.07425 -0.196638,-0.104321 -0.133356,-0.04535 -0.197962,-0.09752 -0.31586,-0.1848 -0.08355,-0.07251 -0.138499,-0.04579 -0.129748,0.05006 0.01924,0.06564 0.147249,0.159476 0.348757,0.255663 0.125286,0.0598 0.210221,0.08858 0.264963,0.08976 0.03045,6.61e-4 0.04461,-0.0061 0.05384,-0.02548 z m 0.04494,-0.398593 c 0.01269,-0.02233 0.007,-0.04153 -0.0221,-0.07427 -0.05807,-0.06537 -0.247918,-0.14137 -0.333114,-0.133349 -0.158003,0.04175 0.06027,0.169011 0.120808,0.198469 0.103268,0.04746 0.210267,0.05164 0.234414,0.0091 z m -0.693372,-0.128047 c 0.132094,-0.0587 0.264886,-0.134477 0.285168,-0.16273 0.01415,-0.01972 0.0029,-0.03441 -0.05134,-0.06688 -0.09519,-0.05701 -0.332691,-0.142066 -0.480549,-0.172088 -0.147578,-0.02997 -0.298027,-0.0087 -0.4174,0.05913 -0.12492,0.07093 -0.161051,0.172122 -0.08747,0.244964 0.226193,0.157868 0.50868,0.2022 0.751591,0.0976 z"
             id="path2417"
             inkscape:connector-curvature="0" />
        </g>
        <text
           xml:space="preserve"
           style="font-style:normal;font-variant:normal;font-weight:normal;font-stretch:normal;font-size:24.50937462px;line-height:1.25;font-family:'8514fix';-inkscape-font-specification:'8514fix';letter-spacing:0px;word-spacing:0px;fill:#ffffff;fill-opacity:0.94117647;stroke:none;stroke-width:0.25006533;"
           x="56.930534"
           y="75.677956"
           id="text5030"
           transform="scale(0.8970125,1.1148117)"><tspan
             sodipodi:role="line"
             id="tspan5028"
             x="56.930534"
             y="75.677956"
             style="font-style:normal;font-variant:normal;font-weight:normal;font-stretch:normal;font-family:'Kaushan Script';-inkscape-font-specification:'Kaushan Script';fill:#ffffff;fill-opacity:0.94117647;stroke:none;stroke-width:0.25006533;">BEE</tspan></text>
        <path
           style="fill:#c2ead6;fill-opacity:0;stroke:none;stroke-width:0.25006533"
           d="m 70.702364,86.264384 c -0.421375,-0.343035 -0.885895,-0.923968 -1.254185,-1.568487 l -0.293431,-0.513514 0.417946,-1.188342 c 0.533299,-1.51633 1.137543,-3.356848 1.807712,-5.50627 l 0.529633,-1.698689 -0.265419,-0.123036 c -0.346263,-0.16051 -0.975685,-0.868021 -0.975685,-1.096732 0,-0.135255 0.137165,-0.235387 0.564033,-0.411764 0.310218,-0.128177 0.695638,-0.264199 0.856491,-0.302273 0.160854,-0.03807 0.33779,-0.110059 0.393194,-0.159964 0.201656,-0.181658 1.612251,-5.548421 1.612251,-6.133984 0,-0.04961 -0.129685,-0.113768 -0.288191,-0.142563 -0.995183,-0.180792 -1.509796,-1.035539 -1.301227,-2.16128 l 0.08835,-0.476856 2.013584,0.0296 c 2.004851,0.02947 3.208208,-0.05135 6.22888,-0.418357 1.481604,-0.180014 1.649808,-0.140266 2.030976,0.479941 0.224766,0.365721 0.586329,1.389118 0.586407,1.659821 2.9e-5,0.09421 -0.31706,0.112811 -1.48094,0.08685 -1.179555,-0.0263 -1.784503,0.01021 -2.972304,0.179414 l -1.491325,0.212442 -0.234532,0.522171 c -0.489116,1.089001 -2.135331,5.523291 -2.070826,5.578036 0.01056,0.009 0.338832,-0.03864 0.729475,-0.105786 0.390644,-0.06715 1.105083,-0.14899 1.587643,-0.181869 0.813699,-0.05544 0.90441,-0.04394 1.249749,0.158472 0.477587,0.279932 0.75618,0.84084 0.754556,1.519203 -0.0017,0.694655 -0.06955,0.914527 -0.261313,0.846389 -0.433332,-0.153967 -2.172968,-0.05871 -3.591806,0.196686 l -1.472797,0.265102 -0.313288,0.940503 c -1.22359,3.673232 -2.18892,7.535376 -1.883441,7.535376 0.05454,0 0.726247,-0.144074 1.49268,-0.320159 1.571779,-0.361119 3.240216,-0.645224 4.76926,-0.812118 0.983892,-0.107391 1.041882,-0.104171 1.15168,0.06393 0.214707,0.328713 0.444407,1.358307 0.444407,1.991987 v 0.6233 l -2.318796,0.0082 c -2.424762,0.0086 -3.292876,0.08484 -5.261286,0.462219 -0.653247,0.125241 -1.202236,0.227711 -1.219974,0.227711 -0.01775,0 -0.178901,-0.119385 -0.358139,-0.265303 z"
           id="path99"
           inkscape:connector-curvature="0" />
        <path
           style="fill:#c2ead6;fill-opacity:0;stroke:none;stroke-width:0.25006533"
           d="M 70.890775,86.383724 C 70.517122,86.162987 69.90735,85.453475 69.538866,84.810689 l -0.356179,-0.621327 0.648345,-1.892215 c 0.576311,-1.681983 1.820662,-5.553128 2.011533,-6.25784 0.05618,-0.207418 -0.02264,-0.321749 -0.364806,-0.529167 -0.240057,-0.145521 -0.535159,-0.454985 -0.655781,-0.687702 l -0.219313,-0.423122 0.982363,-0.342881 0.982366,-0.342882 0.561215,-2.012122 c 0.609125,-2.183886 1.034298,-4.070326 0.952927,-4.22801 -0.02816,-0.05457 -0.157057,-0.09922 -0.286439,-0.09922 -0.70531,0 -1.287049,-0.769477 -1.287049,-1.702401 0,-0.912072 -0.06912,-0.88219 1.92141,-0.830691 1.229485,0.03181 2.74283,-0.04832 4.76892,-0.252508 1.632354,-0.164504 3.049221,-0.26417 3.148599,-0.22148 0.302031,0.129749 0.763798,0.918456 0.947305,1.618017 l 0.173509,0.661459 -1.427286,-0.04781 c -0.913041,-0.03059 -1.992587,0.03461 -2.996288,0.180954 l -1.569004,0.228764 -0.37172,0.87738 c -0.447328,1.055846 -1.87749,4.980257 -1.87749,5.151897 0,0.07163 0.20669,0.07813 0.502231,0.0158 0.276227,-0.05826 0.984096,-0.146899 1.573044,-0.196969 0.875508,-0.07443 1.139168,-0.05146 1.445605,0.125939 0.488014,0.282517 0.733311,0.834591 0.733311,1.650426 v 0.657323 l -1.211263,-0.01611 c -0.693511,-0.0092 -1.808598,0.09124 -2.608712,0.23504 -1.275685,0.22928 -1.411179,0.280887 -1.555032,0.592309 -0.61115,1.323041 -2.36053,7.924678 -2.159588,8.14963 0.04095,0.04584 0.596374,-0.04157 1.23428,-0.194252 1.65528,-0.396174 3.896513,-0.784789 5.124655,-0.888579 l 1.055444,-0.08919 0.199446,0.514988 c 0.109696,0.283244 0.222175,0.91015 0.249955,1.393123 l 0.0505,0.878137 -1.537595,-0.06981 c -1.69495,-0.07696 -4.157308,0.119917 -6.013449,0.480798 -0.811702,0.157813 -1.273488,0.192778 -1.418064,0.107368 z"
           id="path4576"
           inkscape:connector-curvature="0" />
        <path
           style="fill:#c2ead6;fill-opacity:0;stroke:none;stroke-width:0.25006533"
           d="M 70.890775,86.383724 C 70.517122,86.162987 69.90735,85.453475 69.538866,84.810689 l -0.356179,-0.621327 0.648345,-1.892215 c 0.576311,-1.681983 1.820662,-5.553128 2.011533,-6.25784 0.05618,-0.207418 -0.02264,-0.321749 -0.364806,-0.529167 -0.240057,-0.145521 -0.535159,-0.454985 -0.655781,-0.687702 l -0.219313,-0.423122 0.982363,-0.342881 0.982366,-0.342882 0.561215,-2.012122 c 0.609125,-2.183886 1.034298,-4.070326 0.952927,-4.22801 -0.02816,-0.05457 -0.157057,-0.09922 -0.286439,-0.09922 -0.70531,0 -1.287049,-0.769477 -1.287049,-1.702401 0,-0.912072 -0.06912,-0.88219 1.92141,-0.830691 1.229485,0.03181 2.74283,-0.04832 4.76892,-0.252508 1.632354,-0.164504 3.049221,-0.26417 3.148599,-0.22148 0.302031,0.129749 0.763798,0.918456 0.947305,1.618017 l 0.173509,0.661459 -1.427286,-0.04781 c -0.913041,-0.03059 -1.992587,0.03461 -2.996288,0.180954 l -1.569004,0.228764 -0.37172,0.87738 c -0.447328,1.055846 -1.87749,4.980257 -1.87749,5.151897 0,0.07163 0.20669,0.07813 0.502231,0.0158 0.276227,-0.05826 0.984096,-0.146899 1.573044,-0.196969 0.875508,-0.07443 1.139168,-0.05146 1.445605,0.125939 0.488014,0.282517 0.733311,0.834591 0.733311,1.650426 v 0.657323 l -1.211263,-0.01611 c -0.693511,-0.0092 -1.808598,0.09124 -2.608712,0.23504 -1.275685,0.22928 -1.411179,0.280887 -1.555032,0.592309 -0.61115,1.323041 -2.36053,7.924678 -2.159588,8.14963 0.04095,0.04584 0.596374,-0.04157 1.23428,-0.194252 1.65528,-0.396174 3.896513,-0.784789 5.124655,-0.888579 l 1.055444,-0.08919 0.199446,0.514988 c 0.109696,0.283244 0.222175,0.91015 0.249955,1.393123 l 0.0505,0.878137 -1.537595,-0.06981 c -1.69495,-0.07696 -4.157308,0.119917 -6.013449,0.480798 -0.811702,0.157813 -1.273488,0.192778 -1.418064,0.107368 z"
           id="path4578"
           inkscape:connector-curvature="0" />
        <path
           style="fill:#c2ead6;fill-opacity:0;stroke:none;stroke-width:0.25006533"
           d="M 70.890775,86.383724 C 70.517122,86.162987 69.90735,85.453475 69.538866,84.810689 l -0.356179,-0.621327 0.648345,-1.892215 c 0.576311,-1.681983 1.820662,-5.553128 2.011533,-6.25784 0.05618,-0.207418 -0.02264,-0.321749 -0.364806,-0.529167 -0.240057,-0.145521 -0.535159,-0.454985 -0.655781,-0.687702 l -0.219313,-0.423122 0.982363,-0.342881 0.982366,-0.342882 0.561215,-2.012122 c 0.609125,-2.183886 1.034298,-4.070326 0.952927,-4.22801 -0.02816,-0.05457 -0.157057,-0.09922 -0.286439,-0.09922 -0.70531,0 -1.287049,-0.769477 -1.287049,-1.702401 0,-0.912072 -0.06912,-0.88219 1.92141,-0.830691 1.229485,0.03181 2.74283,-0.04832 4.76892,-0.252508 1.632354,-0.164504 3.049221,-0.26417 3.148599,-0.22148 0.302031,0.129749 0.763798,0.918456 0.947305,1.618017 l 0.173509,0.661459 -1.427286,-0.04781 c -0.913041,-0.03059 -1.992587,0.03461 -2.996288,0.180954 l -1.569004,0.228764 -0.37172,0.87738 c -0.447328,1.055846 -1.87749,4.980257 -1.87749,5.151897 0,0.07163 0.20669,0.07813 0.502231,0.0158 0.276227,-0.05826 0.984096,-0.146899 1.573044,-0.196969 0.875508,-0.07443 1.139168,-0.05146 1.445605,0.125939 0.488014,0.282517 0.733311,0.834591 0.733311,1.650426 v 0.657323 l -1.211263,-0.01611 c -0.693511,-0.0092 -1.808598,0.09124 -2.608712,0.23504 -1.275685,0.22928 -1.411179,0.280887 -1.555032,0.592309 -0.61115,1.323041 -2.36053,7.924678 -2.159588,8.14963 0.04095,0.04584 0.596374,-0.04157 1.23428,-0.194252 1.65528,-0.396174 3.896513,-0.784789 5.124655,-0.888579 l 1.055444,-0.08919 0.199446,0.514988 c 0.109696,0.283244 0.222175,0.91015 0.249955,1.393123 l 0.0505,0.878137 -1.537595,-0.06981 c -1.69495,-0.07696 -4.157308,0.119917 -6.013449,0.480798 -0.811702,0.157813 -1.273488,0.192778 -1.418064,0.107368 z"
           id="path4580"
           inkscape:connector-curvature="0" />
        <path
           style="fill:#c2ead6;fill-opacity:0;stroke:none;stroke-width:0.25006533"
           d="M 70.890775,86.383724 C 70.517122,86.162987 69.90735,85.453475 69.538866,84.810689 l -0.356179,-0.621327 0.648345,-1.892215 c 0.576311,-1.681983 1.820662,-5.553128 2.011533,-6.25784 0.05618,-0.207418 -0.02264,-0.321749 -0.364806,-0.529167 -0.240057,-0.145521 -0.535159,-0.454985 -0.655781,-0.687702 l -0.219313,-0.423122 0.982363,-0.342881 0.982366,-0.342882 0.561215,-2.012122 c 0.609125,-2.183886 1.034298,-4.070326 0.952927,-4.22801 -0.02816,-0.05457 -0.157057,-0.09922 -0.286439,-0.09922 -0.70531,0 -1.287049,-0.769477 -1.287049,-1.702401 0,-0.912072 -0.06912,-0.88219 1.92141,-0.830691 1.229485,0.03181 2.74283,-0.04832 4.76892,-0.252508 1.632354,-0.164504 3.049221,-0.26417 3.148599,-0.22148 0.302031,0.129749 0.763798,0.918456 0.947305,1.618017 l 0.173509,0.661459 -1.427286,-0.04781 c -0.913041,-0.03059 -1.992587,0.03461 -2.996288,0.180954 l -1.569004,0.228764 -0.37172,0.87738 c -0.447328,1.055846 -1.87749,4.980257 -1.87749,5.151897 0,0.07163 0.20669,0.07813 0.502231,0.0158 0.276227,-0.05826 0.984096,-0.146899 1.573044,-0.196969 0.875508,-0.07443 1.139168,-0.05146 1.445605,0.125939 0.488014,0.282517 0.733311,0.834591 0.733311,1.650426 v 0.657323 l -1.211263,-0.01611 c -0.693511,-0.0092 -1.808598,0.09124 -2.608712,0.23504 -1.275685,0.22928 -1.411179,0.280887 -1.555032,0.592309 -0.61115,1.323041 -2.36053,7.924678 -2.159588,8.14963 0.04095,0.04584 0.596374,-0.04157 1.23428,-0.194252 1.65528,-0.396174 3.896513,-0.784789 5.124655,-0.888579 l 1.055444,-0.08919 0.199446,0.514988 c 0.109696,0.283244 0.222175,0.91015 0.249955,1.393123 l 0.0505,0.878137 -1.537595,-0.06981 c -1.69495,-0.07696 -4.157308,0.119917 -6.013449,0.480798 -0.811702,0.157813 -1.273488,0.192778 -1.418064,0.107368 z"
           id="path4582"
           inkscape:connector-curvature="0" />
        <path
           style="fill:#c2ead6;fill-opacity:0;stroke:none;stroke-width:0.25006533"
           d="M 70.890775,86.383724 C 70.517122,86.162987 69.90735,85.453475 69.538866,84.810689 l -0.356179,-0.621327 0.648345,-1.892215 c 0.576311,-1.681983 1.820662,-5.553128 2.011533,-6.25784 0.05618,-0.207418 -0.02264,-0.321749 -0.364806,-0.529167 -0.240057,-0.145521 -0.535159,-0.454985 -0.655781,-0.687702 l -0.219313,-0.423122 0.982363,-0.342881 0.982366,-0.342882 0.561215,-2.012122 c 0.609125,-2.183886 1.034298,-4.070326 0.952927,-4.22801 -0.02816,-0.05457 -0.157057,-0.09922 -0.286439,-0.09922 -0.70531,0 -1.287049,-0.769477 -1.287049,-1.702401 0,-0.912072 -0.06912,-0.88219 1.92141,-0.830691 1.229485,0.03181 2.74283,-0.04832 4.76892,-0.252508 1.632354,-0.164504 3.049221,-0.26417 3.148599,-0.22148 0.302031,0.129749 0.763798,0.918456 0.947305,1.618017 l 0.173509,0.661459 -1.427286,-0.04781 c -0.913041,-0.03059 -1.992587,0.03461 -2.996288,0.180954 l -1.569004,0.228764 -0.37172,0.87738 c -0.447328,1.055846 -1.87749,4.980257 -1.87749,5.151897 0,0.07163 0.20669,0.07813 0.502231,0.0158 0.276227,-0.05826 0.984096,-0.146899 1.573044,-0.196969 0.875508,-0.07443 1.139168,-0.05146 1.445605,0.125939 0.488014,0.282517 0.733311,0.834591 0.733311,1.650426 v 0.657323 l -1.211263,-0.01611 c -0.693511,-0.0092 -1.808598,0.09124 -2.608712,0.23504 -1.275685,0.22928 -1.411179,0.280887 -1.555032,0.592309 -0.61115,1.323041 -2.36053,7.924678 -2.159588,8.14963 0.04095,0.04584 0.596374,-0.04157 1.23428,-0.194252 1.65528,-0.396174 3.896513,-0.784789 5.124655,-0.888579 l 1.055444,-0.08919 0.199446,0.514988 c 0.109696,0.283244 0.222175,0.91015 0.249955,1.393123 l 0.0505,0.878137 -1.537595,-0.06981 c -1.69495,-0.07696 -4.157308,0.119917 -6.013449,0.480798 -0.811702,0.157813 -1.273488,0.192778 -1.418064,0.107368 z"
           id="path4584"
           inkscape:connector-curvature="0" />
        <path
           style="fill:#c2ead6;fill-opacity:0;stroke:none;stroke-width:0.25006533"
           d="M 70.890775,86.383724 C 70.517122,86.162987 69.90735,85.453475 69.538866,84.810689 l -0.356179,-0.621327 0.648345,-1.892215 c 0.576311,-1.681983 1.820662,-5.553128 2.011533,-6.25784 0.05618,-0.207418 -0.02264,-0.321749 -0.364806,-0.529167 -0.240057,-0.145521 -0.535159,-0.454985 -0.655781,-0.687702 l -0.219313,-0.423122 0.982363,-0.342881 0.982366,-0.342882 0.561215,-2.012122 c 0.609125,-2.183886 1.034298,-4.070326 0.952927,-4.22801 -0.02816,-0.05457 -0.157057,-0.09922 -0.286439,-0.09922 -0.70531,0 -1.287049,-0.769477 -1.287049,-1.702401 0,-0.912072 -0.06912,-0.88219 1.92141,-0.830691 1.229485,0.03181 2.74283,-0.04832 4.76892,-0.252508 1.632354,-0.164504 3.049221,-0.26417 3.148599,-0.22148 0.302031,0.129749 0.763798,0.918456 0.947305,1.618017 l 0.173509,0.661459 -1.427286,-0.04781 c -0.913041,-0.03059 -1.992587,0.03461 -2.996288,0.180954 l -1.569004,0.228764 -0.37172,0.87738 c -0.447328,1.055846 -1.87749,4.980257 -1.87749,5.151897 0,0.07163 0.20669,0.07813 0.502231,0.0158 0.276227,-0.05826 0.984096,-0.146899 1.573044,-0.196969 0.875508,-0.07443 1.139168,-0.05146 1.445605,0.125939 0.488014,0.282517 0.733311,0.834591 0.733311,1.650426 v 0.657323 l -1.211263,-0.01611 c -0.693511,-0.0092 -1.808598,0.09124 -2.608712,0.23504 -1.275685,0.22928 -1.411179,0.280887 -1.555032,0.592309 -0.61115,1.323041 -2.36053,7.924678 -2.159588,8.14963 0.04095,0.04584 0.596374,-0.04157 1.23428,-0.194252 1.65528,-0.396174 3.896513,-0.784789 5.124655,-0.888579 l 1.055444,-0.08919 0.199446,0.514988 c 0.109696,0.283244 0.222175,0.91015 0.249955,1.393123 l 0.0505,0.878137 -1.537595,-0.06981 c -1.69495,-0.07696 -4.157308,0.119917 -6.013449,0.480798 -0.811702,0.157813 -1.273488,0.192778 -1.418064,0.107368 z"
           id="path4586"
           inkscape:connector-curvature="0" />
        <path
           style="fill:#c2ead6;fill-opacity:0;stroke:none;stroke-width:0.25006533"
           d="M 70.890775,86.383724 C 70.517122,86.162987 69.90735,85.453475 69.538866,84.810689 l -0.356179,-0.621327 0.648345,-1.892215 c 0.576311,-1.681983 1.820662,-5.553128 2.011533,-6.25784 0.05618,-0.207418 -0.02264,-0.321749 -0.364806,-0.529167 -0.240057,-0.145521 -0.535159,-0.454985 -0.655781,-0.687702 l -0.219313,-0.423122 0.982363,-0.342881 0.982366,-0.342882 0.561215,-2.012122 c 0.609125,-2.183886 1.034298,-4.070326 0.952927,-4.22801 -0.02816,-0.05457 -0.157057,-0.09922 -0.286439,-0.09922 -0.70531,0 -1.287049,-0.769477 -1.287049,-1.702401 0,-0.912072 -0.06912,-0.88219 1.92141,-0.830691 1.229485,0.03181 2.74283,-0.04832 4.76892,-0.252508 1.632354,-0.164504 3.049221,-0.26417 3.148599,-0.22148 0.302031,0.129749 0.763798,0.918456 0.947305,1.618017 l 0.173509,0.661459 -1.427286,-0.04781 c -0.913041,-0.03059 -1.992587,0.03461 -2.996288,0.180954 l -1.569004,0.228764 -0.37172,0.87738 c -0.447328,1.055846 -1.87749,4.980257 -1.87749,5.151897 0,0.07163 0.20669,0.07813 0.502231,0.0158 0.276227,-0.05826 0.984096,-0.146899 1.573044,-0.196969 0.875508,-0.07443 1.139168,-0.05146 1.445605,0.125939 0.488014,0.282517 0.733311,0.834591 0.733311,1.650426 v 0.657323 l -1.211263,-0.01611 c -0.693511,-0.0092 -1.808598,0.09124 -2.608712,0.23504 -1.275685,0.22928 -1.411179,0.280887 -1.555032,0.592309 -0.61115,1.323041 -2.36053,7.924678 -2.159588,8.14963 0.04095,0.04584 0.596374,-0.04157 1.23428,-0.194252 1.65528,-0.396174 3.896513,-0.784789 5.124655,-0.888579 l 1.055444,-0.08919 0.199446,0.514988 c 0.109696,0.283244 0.222175,0.91015 0.249955,1.393123 l 0.0505,0.878137 -1.537595,-0.06981 c -1.69495,-0.07696 -4.157308,0.119917 -6.013449,0.480798 -0.811702,0.157813 -1.273488,0.192778 -1.418064,0.107368 z"
           id="path4588"
           inkscape:connector-curvature="0" />
        <path
           style="fill:#c2ead6;fill-opacity:0;stroke:none;stroke-width:0.25006533"
           d="M 58.150154,86.268839 C 56.969172,86.114836 55.565405,85.32303 54.844785,84.404418 54.546134,84.023712 54.2725,83.58416 54.236708,83.427637 54.05958,82.653038 57.397177,72.831263 59.129987,69.027848 c 0.39779,-0.873124 0.676277,-1.605901 0.618859,-1.628396 -0.184452,-0.07226 -1.828862,0.75674 -2.716944,1.3697 -0.998174,0.688949 -1.006319,0.686282 -1.537214,-0.503071 -0.553266,-1.23948 -0.510795,-1.431311 0.439742,-1.986243 0.874255,-0.510394 2.679093,-1.190929 3.955837,-1.491591 0.529448,-0.124679 1.521729,-0.192169 2.825447,-0.192169 1.974249,0 2.024643,0.0071 2.879692,0.405587 1.587913,0.740035 2.482158,1.924823 2.664833,3.53064 0.251597,2.211697 -0.52588,4.159919 -2.241888,5.617789 l -0.403841,0.343088 0.509005,0.640771 c 0.279954,0.352425 0.647802,0.968192 0.817442,1.368375 0.271933,0.64149 0.308439,0.892857 0.308439,2.123876 0,1.346097 -0.01588,1.432213 -0.441741,2.396519 -1.474682,3.339174 -5.336356,5.679199 -8.657501,5.246116 z m 3.130073,-2.704944 c 2.01877,-0.755462 3.588559,-2.149403 4.341688,-3.855333 0.389242,-0.881679 0.439985,-1.111131 0.442698,-2.001809 0.0026,-0.853376 -0.04438,-1.096322 -0.309663,-1.601459 -0.171999,-0.327512 -0.426515,-0.710758 -0.565594,-0.851662 -0.250567,-0.253855 -0.264393,-0.253029 -1.51894,0.09082 -0.69634,0.190852 -1.69149,0.385176 -2.211447,0.431832 -1.015844,0.09115 -1.470125,-0.02439 -1.910193,-0.485822 l -0.255783,-0.268209 -0.131577,0.275231 c -0.552185,1.155046 -2.376488,7.099217 -2.406648,7.841638 -0.022,0.541727 -0.0087,0.563346 0.450011,0.729898 0.752285,0.273156 2.974806,0.10676 4.075448,-0.30512 z m 0.769602,-10.225323 c 1.831124,-0.09463 1.918702,-0.112381 2.777041,-0.562808 1.867538,-0.980017 2.748127,-2.184273 2.740073,-3.747204 -0.01016,-1.972167 -1.173897,-2.818667 -3.680601,-2.677276 -1.450759,0.08183 -1.694938,0.159485 -1.596236,0.507629 0.04437,0.156491 -0.263999,1.036225 -0.840782,2.398657 -0.883791,2.087629 -1.703848,4.154353 -1.703848,4.294074 0,0.03772 0.09306,0.02719 0.206801,-0.02339 0.11374,-0.05058 1.057639,-0.135938 2.097552,-0.18968 z"
           id="path4590"
           inkscape:connector-curvature="0" />
        <path
           style="fill:none;fill-opacity:1;stroke:none;stroke-width:0.25006533"
           d="m 177.08838,85.717408 c -0.64482,-1.043448 -1.12439,-2.527358 -1.96329,-6.074876 -0.40571,-1.715667 -0.80711,-3.19332 -0.89196,-3.283672 -0.0849,-0.09035 -0.4339,-0.237826 -0.77561,-0.327721 -0.60005,-0.157856 -0.65023,-0.07538 -1.46817,2.413236 -0.79279,2.412087 -1.59123,5.334343 -1.91488,7.008449 -0.18631,0.963616 -0.5066,0.917663 -1.45564,-0.208838 l -0.78892,-0.93644 0.49157,-1.378664 c 3.10842,-8.71819 5.1117,-15.154891 4.81832,-15.481781 -0.091,-0.10141 -0.90144,0.25672 -1.80096,0.795845 l -1.6355,0.980226 -0.34669,-0.592368 c -0.19071,-0.3258 -0.37612,-0.885965 -0.41207,-1.244809 -0.0539,-0.538676 0.12011,-0.755369 0.99822,-1.242721 2.49312,-1.383713 6.67736,-2.041306 8.79646,-1.382451 1.04668,0.325424 2.1959,1.351449 2.67471,2.387984 0.1903,0.412001 0.34369,1.380085 0.34083,2.151295 -0.0113,3.069291 -1.78501,5.375553 -5.04138,6.555258 -0.85415,0.309436 -0.90158,0.381336 -0.76543,1.160286 0.1883,1.077457 1.75266,4.735237 2.83592,6.630966 0.46694,0.817168 0.84899,1.588815 0.84899,1.714775 0,0.348935 -1.10514,1.083625 -1.62999,1.083625 -0.2557,0 -0.66725,-0.327422 -0.91453,-0.727604 z m 0.52763,-11.946917 c 1.58032,-0.621799 2.43513,-1.336862 3.1383,-2.625251 0.90264,-1.653831 0.58793,-3.695774 -0.68301,-4.43153 -0.3692,-0.21373 -1.32173,-0.377031 -2.19925,-0.377031 -1.34948,0 -1.54796,0.06287 -1.54796,0.490273 0,0.26965 -0.57049,1.847228 -1.26775,3.505729 -0.69724,1.658501 -1.34778,3.301756 -1.44557,3.651681 -0.17766,0.635537 -0.17632,0.636043 1.26146,0.46781 0.79161,-0.09262 2.02632,-0.399383 2.74378,-0.681681 z"
           id="path2415"
           inkscape:connector-curvature="0" />
        <text
           xml:space="preserve"
           style="font-style:normal;font-variant:normal;font-weight:normal;font-stretch:normal;font-size:11.18731594px;line-height:1.25;font-family:'Sitka Display';-inkscape-font-specification:'Sitka Display';letter-spacing:0px;word-spacing:0px;fill:#ffffff;fill-opacity:0.94117647;stroke:none;stroke-width:0.2796829;"
           x="100.10098"
           y="79.488861"
           id="text2475"
           transform="scale(0.94489083,1.0583233)"><tspan
             sodipodi:role="line"
             id="tspan2473"
             x="100.10098"
             y="79.488861"
             style="font-style:normal;font-variant:normal;font-weight:normal;font-stretch:normal;font-size:25.73082733px;font-family:'Kaushan Script';-inkscape-font-specification:'Kaushan Script';fill:#ffffff;fill-opacity:0.94117647;stroke-width:0.2796829;">WINNER</tspan></text>
        <path
           style="fill:#ffffff;fill-opacity:0.94117647;stroke:none;stroke-width:0.02338609;stroke-opacity:1"
           d="m 163.86325,93.446053 c -0.77851,-0.04079 -2.06801,-0.120625 -4.50182,-0.278727 -16.31662,-1.059938 -30.64256,-1.838368 -42.36389,-2.301929 -1.98729,-0.07859 -5.93147,-0.222217 -6.10962,-0.222475 -0.0475,-6.9e-5 -0.0526,-0.01136 -0.0526,-0.117006 v -0.116931 l 0.19294,2.15e-4 c 0.64838,7.14e-4 7.24808,0.256255 11.46503,0.443916 2.64515,0.117714 6.46072,0.3012 9.00364,0.432973 2.92417,0.15153 6.21377,0.327439 7.42508,0.397051 0.34085,0.01959 1.08804,0.06204 1.66041,0.09434 1.93767,0.109345 6.06488,0.350638 7.60048,0.444355 4.84742,0.295834 7.5862,0.467814 11.35394,0.712962 0.19294,0.01256 0.83489,0.05432 1.42655,0.09281 1.16767,0.07597 2.48702,0.15393 2.97004,0.175505 0.16721,0.0075 0.37505,0.0196 0.46187,0.02696 l 0.15786,0.01338 v 0.114557 0.114557 l -0.15786,-0.0035 c -0.0868,-0.0019 -0.32623,-0.01227 -0.53203,-0.02306 z"
           id="path2439"
           inkscape:connector-curvature="0" />
        <path
           style="fill:#ffffff;fill-opacity:0.94117647;stroke:none;stroke-width:0.02338609;stroke-opacity:1"
           d="m 167.33188,93.574246 c -0.78933,-0.0198 -1.90773,-0.05845 -2.46138,-0.08506 l -0.30987,-0.0149 -1e-5,-0.119375 -1e-5,-0.119376 0.39173,0.0157 c 4.31282,0.172876 8.10986,0.137593 11.83922,-0.110012 14.16116,-1.920675 25.43421,-7.342001 25.77013,-17.458933 -0.35707,13.904106 -19.59341,17.567167 -29.13774,17.870889 -0.83747,0.03125 -5.09832,0.04599 -6.09208,0.02106 z"
           id="path2441"
           inkscape:connector-curvature="0"
           sodipodi:nodetypes="csccccccccc" />
        <path
           id="path2447"
           style="fill:#ffffff;fill-opacity:0.94117647;stroke:none;stroke-width:0.03307291;stroke-opacity:1"
           d="m 89.08889,90.084668 c -1.234229,0.0032 -2.270567,0.0098 -2.9161,0.02066 -11.718028,0.196924 -19.931616,0.794054 -29.534116,2.43396 -11.221691,2.163646 6.276191,-0.699434 9.442319,-1.055748 6.110941,-0.671483 12.157961,-1.013889 20.257161,-1.146702 2.60958,-0.04279 11.106751,-0.02178 13.841016,0.03411 3.57618,0.07309 7.10464,0.161594 9.31003,0.234095 0.53661,0.01765 1.06123,0.03238 1.16582,0.03256 l 0.19017,5.29e-4 v -0.111623 -0.111103 l -0.65319,-0.02222 c -2.30689,-0.07815 -6.37197,-0.182812 -9.84747,-0.253731 -2.067937,-0.0422 -7.552955,-0.06447 -11.25564,-0.05478 z"
           inkscape:connector-curvature="0"
           sodipodi:nodetypes="cscccsccccccscc" />
      </g>
    </g>
    <g
       id="g369"
       transform="translate(-252.94388,43.404571)" />
  </g>
</svg>
